<svg xmlns="http://www.w3.org/2000/svg" xmlns:xlink="http://www.w3.org/1999/xlink" width="537" height="312.001" viewBox="0 0 537 312.001">
  <defs>
    <linearGradient id="linear-gradient" x1="0.5" y1="0.063" x2="0.5" y2="0.981" gradientUnits="objectBoundingBox">
      <stop offset="0.002" stop-color="#03b8cb"/>
      <stop offset="0.998" stop-color="#bdff3f"/>
    </linearGradient>
    <linearGradient id="linear-gradient-2" x1="0.5" y1="0.063" x2="0.5" y2="0.981" xlink:href="#linear-gradient"/>
    <linearGradient id="linear-gradient-3" x1="0.5" y1="1" x2="0.5" gradientUnits="objectBoundingBox">
      <stop offset="0.002" stop-color="#4e63d7"/>
      <stop offset="1" stop-color="#76bee9"/>
    </linearGradient>
    <linearGradient id="linear-gradient-6" x1="0.5" y1="1" x2="0.5" y2="0" xlink:href="#linear-gradient-3"/>
    <linearGradient id="linear-gradient-8" x1="0.5" y1="1" x2="0.5" y2="0" xlink:href="#linear-gradient-3"/>
    <linearGradient id="linear-gradient-13" x1="0.5" y1="0.063" x2="0.5" y2="0.981" xlink:href="#linear-gradient"/>
  </defs>
  <g id="Vector_Smart_Object" data-name="Vector Smart Object" transform="translate(-81.046 -370.351)">
    <rect id="Rectangle_1" data-name="Rectangle 1" width="350.987" height="312" rx="9.302" transform="translate(267.059 370.351)" fill="#fff"/>
    <rect id="Rectangle_2" data-name="Rectangle 2" width="171.309" height="185.847" rx="6.775" transform="translate(81.046 496.504)" fill="#fff"/>
    <g id="Group_4" data-name="Group 4">
      <g id="Group_3" data-name="Group 3">
        <g id="Group_1" data-name="Group 1">
          <path id="Path_1" data-name="Path 1" d="M170.693,642.041c-.789,0-1.59-.027-2.377-.055l-.112,2.494c.83.043,1.659.057,2.489.057h.041Zm4.891-.224c-.8.069-1.617.126-2.418.169l.113,2.494c.745-.041,1.489-.084,2.235-.155h.028c.083-.014.183-.014.266-.028v-.041Zm-12.09-.268-.337,2.468c.83.126,1.672.212,2.515.3l.225-2.494C165.1,641.746,164.3,641.647,163.494,641.549Zm17.236,1.522-.351-1.931c-.787.155-1.588.281-2.39.395l.294,2.128.043.34c.844-.114,1.688-.24,2.5-.395Zm-22-2.411-.564,2.439c.815.183,1.645.366,2.489.523l.45-2.468C160.3,641.012,159.516,640.843,158.729,640.66Zm26.908,1.3-.548-1.933c-.775.226-1.548.437-2.335.62l.436,1.862.126.564c.83-.183,1.645-.409,2.46-.635Zm-31.561-2.622-.789,2.382c.8.268,1.6.509,2.418.747l.675-2.411C155.608,639.828,154.835,639.6,154.076,639.335Zm35.61-.846c-.759.3-1.519.564-2.292.832l.718,2.1.083.268c.633-.226,1.252-.437,1.87-.677h.014c.183-.069.337-.126.505-.2Zm-40.137-.9-1.012,2.285c.773.338,1.56.663,2.347.973l.9-2.326C151.038,638.221,150.279,637.911,149.549,637.586ZM194.1,636.53c-.716.352-1.448.7-2.179,1.028l1,2.285c.773-.338,1.546-.7,2.292-1.084Zm-48.9-1.115-1.209,2.185c.732.409,1.491.8,2.235,1.184l1.126-2.228Q146.258,636.007,145.2,635.415Zm53.113-1.255c-.674.423-1.377.832-2.079,1.227l1.223,2.185c.73-.409,1.461-.844,2.179-1.282Zm-57.231-1.31-1.42,2.071c.7.48,1.406.946,2.136,1.383l1.308-2.116C142.421,633.751,141.745,633.314,141.086,632.85Zm61.225-1.438c-.647.492-1.294.958-1.969,1.424l1.42,2.059c.69-.48,1.379-.974,2.053-1.481ZM137.22,629.93l-1.6,1.918c.659.535,1.321,1.07,2,1.579l1.5-1.988C138.469,630.945,137.838,630.437,137.22,629.93Zm68.815-1.621c-.59.549-1.209,1.072-1.828,1.593l1.588,1.933c.661-.551,1.294-1.115,1.913-1.678Zm-72.4-1.65-1.771,1.762c.6.592,1.223,1.186,1.842,1.764l1.688-1.861C134.788,627.788,134.21,627.222,133.634,626.659Zm75.832-1.79c-.548.606-1.11,1.2-1.672,1.762l1.757,1.776c.6-.606,1.181-1.213,1.757-1.846Zm-79.108-1.8-1.911,1.607c.548.649,1.1,1.284,1.673,1.917l1.842-1.691C131.412,624.3,130.879,623.684,130.358,623.064Zm82.2-1.933c-.493.649-.984,1.284-1.505,1.9l1.913,1.607c.548-.649,1.069-1.326,1.574-2Zm-85.11-1.931-2.067,1.41c.493.7.984,1.4,1.491,2.059l2-1.509C128.376,620.525,127.9,619.862,127.449,619.2Zm87.852-2.073c-.422.692-.872,1.367-1.322,2.045l2.053,1.41c.479-.706.941-1.41,1.392-2.13Zm-90.412-2.045L122.71,616.3c.408.747.844,1.467,1.294,2.185l2.108-1.31C125.692,616.479,125.284,615.789,124.889,615.083Zm92.773-2.2c-.365.718-.73,1.438-1.126,2.157l2.18,1.212c.408-.747.8-1.493,1.181-2.256Zm-94.938-2.144-2.278,1.015c.339.777.7,1.538,1.083,2.3l2.221-1.127C123.4,612.206,123.049,611.488,122.724,610.739Zm96.905-2.311c-.294.761-.6,1.508-.927,2.256l2.278,1c.337-.775.674-1.552.97-2.356Zm-98.662-2.214-2.363.8c.268.8.564,1.607.872,2.4l2.32-.917C121.5,607.751,121.234,606.99,120.968,606.215Zm100.2-2.4c-.211.791-.45,1.552-.718,2.327l2.375.789c.268-.8.521-1.607.746-2.425Zm-101.518-2.269-2.432.578c.2.832.408,1.65.647,2.468l2.39-.692C120.025,603.126,119.828,602.337,119.645,601.548Zm102.628-2.454c-.154.8-.323,1.593-.491,2.368l2.418.578c.2-.832.365-1.664.519-2.5Zm-103.526-2.313-2.46.338c.112.846.253,1.678.408,2.51l2.446-.452C118.986,598.374,118.858,597.585,118.747,596.781Zm104.188-2.5c-.071.8-.168,1.607-.268,2.411l2.46.34c.113-.832.211-1.678.3-2.525ZM118.3,591.931l-2.489.126c.043.846.1,1.693.183,2.539l2.475-.24C118.394,593.567,118.339,592.749,118.3,591.931Zm106.563-2.622-1.7.112c0,.818-.028,1.636-.057,2.439l2.489.114c.043-.846.057-1.693.057-2.582Zm-109.052-2.341c-.043.818-.055,1.636-.055,2.454v.085l2.487-.085c0-.775.014-1.565.057-2.34Zm109.6-2.791-2.489.24c.085.789.14,1.607.168,2.411l2.489-.114C225.549,585.854,225.478,585.008,225.409,584.176Zm-109.151-2.27c-.112.832-.211,1.678-.282,2.525l2.475.226c.071-.8.168-1.621.282-2.413Zm108.433-2.777-2.446.466c.156.8.282,1.593.394,2.4l2.46-.34C224.987,580.806,224.845,579.96,224.691,579.128ZM117.172,576.9c-.184.818-.367,1.65-.521,2.494l2.46.452c.14-.8.308-1.593.493-2.382Zm106.352-2.722-2.4.692c.225.775.436,1.565.619,2.354l2.418-.578C223.961,575.814,223.75,575,223.524,574.178ZM118.55,571.993c-.268.8-.507,1.621-.746,2.439l2.406.677q.335-1.165.716-2.327Zm103.344-2.637-2.32.916c.3.749.564,1.509.83,2.285l2.363-.8C222.484,570.95,222.2,570.146,221.894,569.357Zm-101.5-2.116c-.353.775-.675,1.566-.986,2.356l2.335.9c.3-.761.6-1.508.927-2.256Zm99.435-2.523-2.221,1.127c.365.72.7,1.453,1.041,2.2l2.278-1.029C220.573,566.24,220.206,565.479,219.827,564.718Zm-97.185-2.045a1.586,1.586,0,0,0-.113.226c-.379.676-.73,1.339-1.069,2.03l2.235,1.113c.282-.549.564-1.113.858-1.664.085-.169.183-.324.268-.492Zm94.711-2.384-2.122,1.326c.436.692.844,1.381,1.237,2.087l2.179-1.227C218.224,561.742,217.8,561.009,217.352,560.289Zm-92.041-1.945c-.477.692-.927,1.41-1.377,2.13l2.124,1.325c.422-.692.856-1.367,1.321-2.045Zm89.161-2.242-1.984,1.524c.493.633.971,1.3,1.42,1.959l2.053-1.424C215.484,557.469,214.991,556.78,214.471,556.1Zm-86.1-1.833c-.548.663-1.067,1.326-1.574,2l1.982,1.509c.493-.649,1-1.284,1.505-1.9Zm82.848-2.059-1.842,1.678c.548.606,1.081,1.213,1.6,1.833l1.911-1.607C212.348,553.466,211.8,552.831,211.224,552.21Zm-79.432-1.693c-.6.594-1.181,1.214-1.757,1.833l1.842,1.693c.548-.606,1.111-1.184,1.673-1.762Zm75.832-1.9-1.672,1.847c.6.549,1.181,1.113,1.757,1.678l1.757-1.778C208.861,549.771,208.256,549.179,207.624,548.615Zm-72.091-1.538c-.647.537-1.294,1.1-1.913,1.678l1.688,1.847c.59-.549,1.195-1.086,1.828-1.607Zm68.184-1.705-1.491,1.988c.633.494,1.266,1,1.9,1.509l1.588-1.918C205.066,546.4,204.39,545.879,203.717,545.372Zm-64.15-1.367c-.69.478-1.377.972-2.053,1.493l1.505,1.988c.647-.492,1.292-.958,1.968-1.424Zm59.959-1.509-1.306,2.128c.688.423,1.363.861,2.024,1.326l1.406-2.059C200.96,543.411,200.244,542.947,199.526,542.5Zm-55.657-1.17c-.732.409-1.462.832-2.179,1.282l1.321,2.13c.675-.423,1.377-.846,2.081-1.241Zm51.215-1.3-1.11,2.242c.73.352,1.448.733,2.15,1.129l1.209-2.187C196.589,540.8,195.844,540.409,195.084,540.028Zm-46.687-.987c-.775.352-1.533.7-2.292,1.086l1.124,2.242c.718-.368,1.448-.706,2.18-1.044Zm42.034-1.072-.9,2.341c.759.281,1.5.592,2.25.93l1-2.3C192,538.6,191.217,538.28,190.43,537.969Zm-37.311-.775c-.8.268-1.6.564-2.39.875l.915,2.326c.745-.3,1.5-.564,2.276-.832Zm32.49-.832-.675,2.411c.787.226,1.548.452,2.32.72l.787-2.384C187.239,536.842,186.424,536.588,185.609,536.362ZM158,535.8c-.83.2-1.645.409-2.46.635l.69,2.411c.773-.226,1.56-.423,2.347-.62Zm22.662-.578-.448,2.454c.8.155,1.588.309,2.375.492l.562-2.439Q181.925,535.453,180.659,535.221Zm-17.67-.366c-.844.112-1.673.253-2.5.409l.45,2.466c.8-.155,1.588-.281,2.4-.395Zm12.652-.325-.225,2.5c.8.069,1.617.169,2.4.268l.339-2.482C177.328,534.7,176.485,534.614,175.641,534.529Zm-7.6-.155c-.858.043-1.688.1-2.531.183l.225,2.5c.8-.085,1.617-.142,2.432-.183Zm2.657-.057h-.113l.113,2.5c.773,0,1.546.014,2.3.057l.113-2.51C172.31,534.332,171.509,534.317,170.693,534.317Z" fill="#dee6ee"/>
        </g>
        <g id="Group_2" data-name="Group 2">
          <path id="Path_2" data-name="Path 2" d="M116.229,558.342a46.164,46.164,0,0,0-8.475,26.5h45.081Z" fill="#76bee9"/>
          <path id="Path_3" data-name="Path 3" d="M170.709,589.973l-15.066,43.244a46,46,0,0,0,55.786-21.877Z" fill="#dee6ee" stroke="#fff" stroke-miterlimit="10" stroke-width="1.775"/>
          <path id="Path_4" data-name="Path 4" d="M170,590.119l-41.071,19.049A46.336,46.336,0,0,0,155.056,633Z" fill="#dee6ee" stroke="#fff" stroke-miterlimit="10" stroke-width="1.775"/>
          <path id="Path_5" data-name="Path 5" d="M169.119,589.84H124.5a46.248,46.248,0,0,0,4.157,18.768Z" fill="#dee6ee" stroke="#fff" stroke-miterlimit="10" stroke-width="1.775"/>
          <path id="Path_6" data-name="Path 6" d="M170.7,589.26l41,21.516a46.213,46.213,0,0,0-78.361-48.569Z" fill="#76bee9"/>
        </g>
      </g>
    </g>
    <path id="Path_7" data-name="Path 7" d="M252.355,377.765v94.868a7.393,7.393,0,0,1-7.392,7.414H89.122a7.391,7.391,0,0,1-7.39-7.414V377.765a7.408,7.408,0,0,1,7.39-7.414H244.963a7.28,7.28,0,0,1,4.582,1.607h.025A7.455,7.455,0,0,1,252.355,377.765Z" fill="#76bee9"/>
    <path id="Path_8" data-name="Path 8" d="M252.355,377.765v94.868a7.393,7.393,0,0,1-7.392,7.414H108.291a79.65,79.65,0,0,1,23.777-32.5c22.15-17.941,53.319-23.428,72.437-44.581a74.551,74.551,0,0,0,10.521-15.395,121.432,121.432,0,0,0,6.555-15.173c.246-.642.468-1.335.665-2.052h22.717A7.41,7.41,0,0,1,252.355,377.765Z" fill="#76bee9" opacity="0.201" style="mix-blend-mode: multiply;isolation: isolate"/>
    <g id="Group_5" data-name="Group 5">
      <text id="_210" data-name="210" transform="translate(108.361 444.323)" fill="#fff" font-size="30" font-family="SourceSansPro-Semibold, Source Sans Pro" font-weight="600"><tspan x="0" y="0">210</tspan></text>
      <text id="Categories" transform="translate(108.361 411.399)" fill="#fff" font-size="17" font-family="SourceSansPro-Regular, Source Sans Pro"><tspan x="0" y="0">Categories</tspan></text>
    </g>
    <text id="Statistic" transform="translate(287.47 553.72)" fill="#494949" font-size="14" font-family="SourceSansPro-Semibold, Source Sans Pro" font-weight="600"><tspan x="0" y="0">Statistic</tspan></text>
    <text id="_24_" data-name="24%" transform="translate(199.639 668.39)" fill="#232323" font-size="12" font-family="SourceSansPro-Regular, Source Sans Pro"><tspan x="0" y="0">24%</tspan></text>
    <text id="_78_" data-name="78%" transform="translate(209.55 528.953)" fill="#232323" font-size="12" font-family="SourceSansPro-Regular, Source Sans Pro"><tspan x="0" y="0">78%</tspan></text>
    <text id="_12_" data-name="12%" transform="translate(107.917 550.604)" fill="#232323" font-size="12" font-family="SourceSansPro-Regular, Source Sans Pro"><tspan x="0" y="0">12%</tspan></text>
    <text id="_300" data-name="300" transform="translate(287.47 410.921)" fill="#989c9f" font-size="10" font-family="SourceSansPro-Regular, Source Sans Pro"><tspan x="0" y="0">300</tspan></text>
    <text id="_240" data-name="240" transform="translate(287.47 435.041)" fill="#989c9f" font-size="10" font-family="SourceSansPro-Regular, Source Sans Pro"><tspan x="0" y="0">240</tspan></text>
    <text id="_160" data-name="160" transform="translate(287.47 459.161)" fill="#989c9f" font-size="10" font-family="SourceSansPro-Regular, Source Sans Pro"><tspan x="0" y="0">160</tspan></text>
    <text id="_80" data-name="80" transform="translate(287.47 483.279)" fill="#989c9f" font-size="10" font-family="SourceSansPro-Regular, Source Sans Pro"><tspan x="0" y="0">80</tspan></text>
    <text id="_0" data-name="0" transform="translate(287.47 507.399)" fill="#989c9f" font-size="10" font-family="SourceSansPro-Regular, Source Sans Pro"><tspan x="0" y="0">0</tspan></text>
    <g id="Group_6" data-name="Group 6">
      <line id="Line_1" data-name="Line 1" x2="287.133" transform="translate(305.757 482.528)" fill="none" stroke="#ced3dc" stroke-miterlimit="10" stroke-width="0.443" opacity="0.4"/>
      <line id="Line_2" data-name="Line 2" x2="287.133" transform="translate(305.757 459.16)" fill="none" stroke="#ced3dc" stroke-miterlimit="10" stroke-width="0.443" opacity="0.4"/>
      <line id="Line_3" data-name="Line 3" x2="287.133" transform="translate(305.757 435.793)" fill="none" stroke="#ced3dc" stroke-miterlimit="10" stroke-width="0.443" opacity="0.4"/>
      <line id="Line_4" data-name="Line 4" x2="287.133" transform="translate(305.757 412.425)" fill="none" stroke="#ced3dc" stroke-miterlimit="10" stroke-width="0.443" opacity="0.4"/>
      <line id="Line_5" data-name="Line 5" x1="287.133" transform="translate(305.757 507.724)" fill="none" stroke="#ced3dc" stroke-miterlimit="10" stroke-width="0.443" opacity="0.4"/>
    </g>
    <g id="Group_7" data-name="Group 7">
      <path id="Path_9" data-name="Path 9" d="M330.332,507.725h-4.467V467.151a2.237,2.237,0,0,1,2.234-2.24h0a2.237,2.237,0,0,1,2.234,2.24Z" fill="url(#linear-gradient)"/>
      <path id="Path_10" data-name="Path 10" d="M366.456,507.725h-4.467V442.207a2.238,2.238,0,0,1,2.234-2.24h0a2.237,2.237,0,0,1,2.234,2.24Z" fill="url(#linear-gradient-2)"/>
      <path id="Path_11" data-name="Path 11" d="M592.891,507.725h-4.469V442.207a2.238,2.238,0,0,1,2.234-2.24h0a2.238,2.238,0,0,1,2.235,2.24Z" fill="url(#linear-gradient-3)"/>
      <path id="Path_12" data-name="Path 12" d="M456.561,507.725h-4.469V429.6a2.238,2.238,0,0,1,2.235-2.24h0a2.238,2.238,0,0,1,2.234,2.24Z" fill="url(#linear-gradient-3)"/>
      <path id="Path_13" data-name="Path 13" d="M386.161,507.725h-4.467V429.6a2.238,2.238,0,0,1,2.234-2.24h0a2.237,2.237,0,0,1,2.234,2.24Z" fill="url(#linear-gradient-2)"/>
      <path id="Path_14" data-name="Path 14" d="M502.72,507.725h-4.467V449.393a2.237,2.237,0,0,1,2.234-2.24h0a2.237,2.237,0,0,1,2.234,2.24Z" fill="url(#linear-gradient-6)"/>
      <path id="Rectangle_3" data-name="Rectangle 3" d="M2.054,0h.359A2.054,2.054,0,0,1,4.467,2.054V60.572a0,0,0,0,1,0,0H0a0,0,0,0,1,0,0V2.054A2.054,2.054,0,0,1,2.054,0Z" transform="translate(405.008 447.152)" fill="url(#linear-gradient)"/>
      <path id="Path_15" data-name="Path 15" d="M481.246,507.725h-4.467V414.774a2.237,2.237,0,0,1,2.234-2.24h0a2.237,2.237,0,0,1,2.234,2.24Z" fill="url(#linear-gradient-8)"/>
      <path id="Path_16" data-name="Path 16" d="M431.926,507.725h-4.467V459.572a2.238,2.238,0,0,1,2.234-2.24h0a2.237,2.237,0,0,1,2.234,2.24Z" fill="url(#linear-gradient-2)"/>
      <path id="Path_17" data-name="Path 17" d="M568.662,507.725h-4.467V459.572a2.237,2.237,0,0,1,2.234-2.24h0a2.237,2.237,0,0,1,2.234,2.24Z" fill="url(#linear-gradient-3)"/>
      <path id="Path_18" data-name="Path 18" d="M524.7,507.725h-4.467V470.352a2.237,2.237,0,0,1,2.234-2.24h0a2.237,2.237,0,0,1,2.234,2.24Z" fill="url(#linear-gradient-8)"/>
      <path id="Path_19" data-name="Path 19" d="M547.135,507.725h-4.467V484.863a2.237,2.237,0,0,1,2.234-2.24h0a2.237,2.237,0,0,1,2.234,2.24Z" fill="url(#linear-gradient-3)"/>
      <path id="Path_20" data-name="Path 20" d="M348.394,507.725h-4.467V484.863a2.237,2.237,0,0,1,2.234-2.24h0a2.237,2.237,0,0,1,2.234,2.24Z" fill="url(#linear-gradient-13)"/>
    </g>
    <g id="Group_8" data-name="Group 8">
      <ellipse id="Ellipse_1" data-name="Ellipse 1" cx="42.24" cy="42.129" rx="42.24" ry="42.129" transform="matrix(0.23, -0.973, 0.973, 0.231, 504.594, 647.315)" fill="#ff957c"/>
      <path id="Path_21" data-name="Path 21" d="M597.409,615.961a42.114,42.114,0,1,1-72.891-28.836A41.88,41.88,0,0,1,555.3,573.7,42.175,42.175,0,0,1,597.409,615.961Z" fill="#4e63d7"/>
      <path id="Path_22" data-name="Path 22" d="M555.3,573.7v26.514l-18.813-1.428-11.964-11.66A41.88,41.88,0,0,1,555.3,573.7Z" fill="#dee6ee"/>
      <ellipse id="Ellipse_2" data-name="Ellipse 2" cx="34.844" cy="34.742" rx="34.844" ry="34.742" transform="matrix(0.082, -0.997, 0.997, 0.083, 517.8, 647.796)" fill="#fff"/>
      <text id="_78" data-name="78" transform="translate(535.895 627.83)" fill="#4e63d7" font-size="34" font-family="OpenSans-Bold, Open Sans" font-weight="700"><tspan x="0" y="0">78</tspan></text>
      <path id="Path_23" data-name="Path 23" d="M530.852,589.7a3.692,3.692,0,1,1-3.691-3.7A3.7,3.7,0,0,1,530.852,589.7Z" fill="#4e63d7"/>
      <ellipse id="Ellipse_3" data-name="Ellipse 3" cx="3.692" cy="3.703" rx="3.692" ry="3.703" transform="translate(551.604 573.699)" fill="#4e63d7"/>
      <text id="_" data-name="%" transform="translate(574.139 618.413)" fill="#4e63d7" font-size="10" font-family="OpenSans-Bold, Open Sans" font-weight="700"><tspan x="0" y="0">%</tspan></text>
    </g>
    <g id="Group_9" data-name="Group 9">
      <ellipse id="Ellipse_4" data-name="Ellipse 4" cx="42.24" cy="42.129" rx="42.24" ry="42.129" transform="matrix(0.23, -0.973, 0.973, 0.231, 392.399, 647.315)" fill="#ff957c"/>
      <path id="Path_24" data-name="Path 24" d="M485.213,615.961a42.113,42.113,0,1,1-72.889-28.836A41.88,41.88,0,0,1,443.1,573.7,42.174,42.174,0,0,1,485.213,615.961Z" fill="#4e63d7"/>
      <path id="Path_25" data-name="Path 25" d="M443.1,573.7v26.514l-18.813-1.428-11.962-11.66A41.88,41.88,0,0,1,443.1,573.7Z" fill="#dee6ee"/>
      <ellipse id="Ellipse_5" data-name="Ellipse 5" cx="34.842" cy="34.744" rx="34.842" ry="34.744" transform="matrix(0.16, -0.987, 0.987, 0.161, 403.22, 644.735)" fill="#fff"/>
      <text id="_53" data-name="53" transform="translate(423.7 627.83)" fill="#4e63d7" font-size="34" font-family="OpenSans-Bold, Open Sans" font-weight="700"><tspan x="0" y="0">53</tspan></text>
      <path id="Path_26" data-name="Path 26" d="M418.658,589.7a3.692,3.692,0,1,1-3.693-3.7A3.7,3.7,0,0,1,418.658,589.7Z" fill="#4e63d7"/>
      <ellipse id="Ellipse_6" data-name="Ellipse 6" cx="3.692" cy="3.703" rx="3.692" ry="3.703" transform="translate(439.409 573.699)" fill="#4e63d7"/>
      <text id="_2" data-name="%" transform="translate(461.943 618.413)" fill="#4e63d7" font-size="10" font-family="OpenSans-Bold, Open Sans" font-weight="700"><tspan x="0" y="0">%</tspan></text>
    </g>
    <g id="Group_10" data-name="Group 10">
      <path id="Path_27" data-name="Path 27" d="M373.025,615.958a42.191,42.191,0,0,1-29.1,40.168A41.172,41.172,0,0,1,330.9,658.2a42.2,42.2,0,0,1-42.119-42.245c0-1.447.082-2.9.218-4.317.082-.709.163-1.421.273-2.132.082-.572.19-1.147.3-1.693.137-.656.271-1.312.436-1.968a36.42,36.42,0,0,1,1.5-4.809,14.8,14.8,0,0,1,.6-1.531c.218-.546.463-1.092.709-1.611a22.172,22.172,0,0,1,1.17-2.242c.218-.437.464-.873.736-1.31.273-.466.546-.93.846-1.367a14.708,14.708,0,0,1,.9-1.339,36.869,36.869,0,0,1,2.37-3.06,9.562,9.562,0,0,1,.872-.956c.027,0,.027-.028.027-.055a1.215,1.215,0,0,1,.191-.19,1.52,1.52,0,0,1,.355-.384,1.8,1.8,0,0,1,.381-.409,7.825,7.825,0,0,1,.954-.956,10.657,10.657,0,0,1,.98-.93,17.688,17.688,0,0,1,1.526-1.339c.408-.354.844-.709,1.306-1.038a3.154,3.154,0,0,1,.491-.382c.463-.327.954-.683,1.416-1.01.573-.384,1.145-.766,1.716-1.093,1.172-.711,2.343-1.367,3.6-1.968q1.718-.819,3.515-1.476a1.375,1.375,0,0,1,.463-.19c.518-.192,1.035-.356,1.553-.519.709-.247,1.416-.437,2.125-.629.681-.19,1.39-.354,2.1-.491.682-.137,1.39-.247,2.07-.356.709-.11,1.416-.192,2.125-.274a38.3,38.3,0,0,1,3.978-.219h.654a42.2,42.2,0,0,1,41.793,42.243Z" fill="#ff957c"/>
      <path id="Path_28" data-name="Path 28" d="M373.025,615.958a42.191,42.191,0,0,1-29.1,40.168A41.172,41.172,0,0,1,330.9,658.2a42.2,42.2,0,0,1-42.119-42.245c0-1.447.082-2.9.218-4.317.082-.709.163-1.421.273-2.132.082-.572.19-1.147.3-1.693.137-.656.271-1.312.436-1.968a36.42,36.42,0,0,1,1.5-4.809,14.8,14.8,0,0,1,.6-1.531c.218-.546.463-1.092.709-1.611a22.172,22.172,0,0,1,1.17-2.242c.218-.437.464-.873.736-1.31.273-.466.546-.93.846-1.367a14.708,14.708,0,0,1,.9-1.339,36.869,36.869,0,0,1,2.37-3.06c.3-.356.573-.683.9-1.012a3.008,3.008,0,0,1,.383-.437.7.7,0,0,1,.163-.137,1.8,1.8,0,0,1,.381-.409,7.825,7.825,0,0,1,.954-.956,10.657,10.657,0,0,1,.98-.93,17.688,17.688,0,0,1,1.526-1.339c.408-.354.844-.709,1.306-1.038a3.154,3.154,0,0,1,.491-.382c.463-.327.954-.683,1.416-1.01.573-.384,1.145-.766,1.716-1.093,1.172-.711,2.343-1.367,3.6-1.968a28.288,28.288,0,0,1,3.515-1.476,1.375,1.375,0,0,1,.463-.19c.518-.192,1.035-.356,1.553-.519.709-.247,1.416-.437,2.125-.629.681-.19,1.39-.354,2.1-.491.682-.137,1.39-.247,2.07-.356.709-.11,1.416-.192,2.125-.274a37.617,37.617,0,0,1,4.3-.245,41.823,41.823,0,0,1,26.819,9.7q1.545,1.283,2.96,2.706A42.149,42.149,0,0,1,373.025,615.958Z" fill="#4e63d7"/>
      <path id="Path_29" data-name="Path 29" d="M343.928,656.126A41.172,41.172,0,0,1,330.9,658.2a42.2,42.2,0,0,1-42.119-42.245c0-1.447.082-2.9.218-4.317.082-.709.163-1.421.273-2.132.082-.572.19-1.147.3-1.693.137-.656.271-1.312.436-1.968a36.42,36.42,0,0,1,1.5-4.809,14.8,14.8,0,0,1,.6-1.531c.218-.546.463-1.092.709-1.611a22.172,22.172,0,0,1,1.17-2.242c.218-.437.464-.873.736-1.31.273-.466.546-.93.846-1.367a14.708,14.708,0,0,1,.9-1.339,36.869,36.869,0,0,1,2.37-3.06c.3-.356.573-.683.9-1.012a3.008,3.008,0,0,1,.383-.437.7.7,0,0,1,.163-.137,1.8,1.8,0,0,1,.381-.409,7.825,7.825,0,0,1,.954-.956,10.657,10.657,0,0,1,.98-.93,17.688,17.688,0,0,1,1.526-1.339c.408-.354.844-.709,1.306-1.038a3.154,3.154,0,0,1,.491-.382c.463-.327.954-.683,1.416-1.01.573-.384,1.145-.766,1.716-1.093,1.172-.711,2.343-1.367,3.6-1.968a28.288,28.288,0,0,1,3.515-1.476,1.375,1.375,0,0,1,.463-.19c.518-.192,1.035-.356,1.553-.519.709-.247,1.416-.437,2.125-.629.681-.19,1.39-.354,2.1-.491.682-.137,1.39-.247,2.07-.356.709-.11,1.416-.192,2.125-.274a37.617,37.617,0,0,1,4.3-.245v26.532l11.335,48.665Z" fill="#dee6ee"/>
      <ellipse id="Ellipse_7" data-name="Ellipse 7" cx="34.842" cy="34.744" rx="34.842" ry="34.744" transform="matrix(0.16, -0.987, 0.987, 0.161, 291.028, 644.735)" fill="#fff"/>
      <text id="_42" data-name="42" transform="translate(311.507 627.83)" fill="#4e63d7" font-size="34" font-family="OpenSans-Bold, Open Sans" font-weight="700"><tspan x="0" y="0">42</tspan></text>
      <path id="Path_30" data-name="Path 30" d="M346.052,652.72a3.675,3.675,0,0,1-1.007,2.541.455.455,0,0,1-.137.108,3.484,3.484,0,0,1-2.562,1.067,3.71,3.71,0,0,1-3.678-3.716,3.878,3.878,0,0,1,.628-2.077c.027,0,.027-.028.027-.055a1.3,1.3,0,0,1,.191-.192,1.45,1.45,0,0,1,.191-.245.7.7,0,0,1,.163-.137,3.541,3.541,0,0,1,2.478-.983A3.691,3.691,0,0,1,346.052,652.72Z" fill="#4e63d7"/>
      <ellipse id="Ellipse_8" data-name="Ellipse 8" cx="3.692" cy="3.703" rx="3.692" ry="3.703" transform="translate(327.217 573.699)" fill="#4e63d7"/>
      <text id="_3" data-name="%" transform="translate(349.755 618.413)" fill="#4e63d7" font-size="10" font-family="OpenSans-Bold, Open Sans" font-weight="700"><tspan x="0" y="0">%</tspan></text>
    </g>
    <line id="Line_6" data-name="Line 6" x2="5.595" y2="8.67" transform="translate(198.219 644.002)" fill="none" stroke="#999da3" stroke-miterlimit="10" stroke-width="0.444" opacity="0.4"/>
    <line id="Line_7" data-name="Line 7" x1="6.92" y2="7.647" transform="translate(206.006 533.229)" fill="none" stroke="#999da3" stroke-miterlimit="10" stroke-width="0.444" opacity="0.4"/>
    <path id="Path_31" data-name="Path 31" d="M252.355,377.765v94.868a7.393,7.393,0,0,1-7.392,7.414h-67.9a50,50,0,0,0,3.35-6.945c3.671-9.439,4.9-19.644,7.293-29.5s6.235-19.843,13.8-26.566c8.154-7.217,19.464-9.686,28.432-15.864a40.2,40.2,0,0,0,11.459-12.232c2.758-4.473,3.251-10.651,6.183-14.753a13.034,13.034,0,0,1,1.971-2.224h.025A7.455,7.455,0,0,1,252.355,377.765Z" fill="#76bee9" opacity="0.201" style="mix-blend-mode: multiply;isolation: isolate"/>
    <g id="Group_14" data-name="Group 14">
      <g id="Group_13" data-name="Group 13">
        <g id="Group_11" data-name="Group 11">
          <path id="Path_32" data-name="Path 32" d="M237.181,465.144H213.394a.427.427,0,0,1-.425-.427v-10.4a.427.427,0,0,1,.425-.427h8.021a.426.426,0,0,1,.425.427,3.447,3.447,0,1,0,6.894,0,.426.426,0,0,1,.425-.427h8.021a.426.426,0,0,1,.425.427v10.4A.426.426,0,0,1,237.181,465.144Zm-23.362-.855h22.937v-9.547h-7.192a4.3,4.3,0,0,1-8.553,0h-7.192Z" fill="#fff"/>
        </g>
        <g id="Group_12" data-name="Group 12">
          <path id="Path_33" data-name="Path 33" d="M237.181,454.741a.429.429,0,0,1-.324-.149l-4.85-5.677H218.972l-5.267,5.689a.426.426,0,0,1-.624-.581l5.394-5.826a.423.423,0,0,1,.312-.137H232.2a.43.43,0,0,1,.324.149l4.978,5.826a.427.427,0,0,1-.046.6A.421.421,0,0,1,237.181,454.741Z" fill="#fff"/>
        </g>
      </g>
    </g>
  </g>
</svg>
