<svg xmlns="http://www.w3.org/2000/svg" xmlns:xlink="http://www.w3.org/1999/xlink" width="1366" zoomAndPan="magnify" viewBox="0 0 1024.5 576" height="768" preserveAspectRatio="xMidYMid meet" version="1.0"><defs><clipPath id="22e13b18f8"><path d="M 0 0.140625 L 1024 0.140625 L 1024 575.859375 L 0 575.859375 Z M 0 0.140625 " clip-rule="nonzero"/></clipPath><clipPath id="261dce9f6c"><path d="M 0 345.570312 L 146.929688 345.570312 L 146.929688 575.710938 L 0 575.710938 Z M 0 345.570312 " clip-rule="nonzero"/></clipPath><clipPath id="7b8c6f7b45"><path d="M 835.578125 177.046875 L 1023.738281 177.046875 L 1023.738281 575.851562 L 835.578125 575.851562 Z M 835.578125 177.046875 " clip-rule="nonzero"/></clipPath><clipPath id="f9b4341d1a"><path d="M 0 0.140625 L 239 0.140625 L 239 230.277344 L 0 230.277344 Z M 0 0.140625 " clip-rule="nonzero"/></clipPath></defs><g clip-path="url(#22e13b18f8)"><path fill="#ffffff" d="M 0 0.140625 L 1024 0.140625 L 1024 575.859375 L 0 575.859375 Z M 0 0.140625 " fill-opacity="1" fill-rule="nonzero"/><path fill="#ffffff" d="M 0 0.140625 L 1024 0.140625 L 1024 575.859375 L 0 575.859375 Z M 0 0.140625 " fill-opacity="1" fill-rule="nonzero"/><rect x="-102.45" width="1229.4" fill="#fafff1" y="-57.6" height="691.2" fill-opacity="1"/></g><g clip-path="url(#261dce9f6c)"><path fill="#9edb2b" d="M 0 348.0625 C 0 348.0625 66.441406 327.914062 112.671875 409.738281 C 112.671875 409.738281 171.765625 517.425781 134.132812 575.109375 L 0 575.109375 Z M 0 348.0625 " fill-opacity="0.05" fill-rule="evenodd"/></g><g clip-path="url(#7b8c6f7b45)"><path fill="#daf2af" d="M 1023.738281 575.300781 C 1023.738281 575.300781 966.625 576.289062 839.417969 575.300781 C 839.417969 575.300781 809.140625 426.210938 927.398438 423.773438 C 927.398438 423.773438 1011.425781 427.710938 961.664062 298.175781 C 961.664062 298.175781 933.75 194.292969 1023.738281 177.046875 Z M 1023.738281 575.300781 " fill-opacity="0.3" fill-rule="evenodd"/></g><g clip-path="url(#f9b4341d1a)"><path fill="#daf2af" d="M 238.539062 0.140625 C 238.539062 0.140625 241.445312 59.710938 189.613281 70.667969 C 137.785156 81.625 58.375 68.59375 86.304688 129.878906 C 86.304688 129.878906 118.234375 173.082031 104.5 201.398438 C 91.28125 228.664062 49.9375 247.574219 0.015625 204.914062 L 0.015625 0.140625 Z M 238.539062 0.140625 " fill-opacity="0.3" fill-rule="evenodd"/></g></svg>