<svg width="24" height="20" viewBox="0 0 24 20" fill="none" xmlns="http://www.w3.org/2000/svg">
<path fill-rule="evenodd" clip-rule="evenodd" d="M18.642 16.5203V18.8817C18.642 19.0695 18.4898 19.2218 18.3019 19.2218H0.340081C0.152259 19.2218 0 19.0695 0 18.8817V5.74304C0 5.55522 0.152259 5.40296 0.340081 5.40296H2.67901V3.04154C2.67901 2.85372 2.83127 2.70146 3.01909 2.70146H5.35798V0.340081C5.35798 0.152259 5.51024 0 5.69806 0H23.6599C23.8477 0 24 0.152259 24 0.340081V13.4787C24 13.6665 23.8477 13.8188 23.6599 13.8188H21.321V16.1802C21.321 16.368 21.1687 16.5203 20.9809 16.5203H18.642ZM17.9619 6.08312H0.680162V18.5416H17.9619V6.08312ZM20.6408 3.38162H3.35917V5.40296H18.3019C18.4898 5.40296 18.642 5.55522 18.642 5.74304V15.8401H20.6408C20.6408 15.3932 20.6408 3.38162 20.6408 3.38162ZM21.321 13.1386H23.3198V0.680162H6.03814V2.70146H20.9809C21.1687 2.70146 21.321 2.85372 21.321 3.04154V13.1386ZM8.74528 10.0294C8.74528 11.7985 7.30902 13.2347 5.53992 13.2347C3.77082 13.2347 2.33456 11.7985 2.33456 10.0294C2.33456 8.26032 3.77082 6.82402 5.53992 6.82402C7.30902 6.82402 8.74528 8.26032 8.74528 10.0294ZM8.04233 9.68929C7.89104 8.56742 7.00188 7.67825 5.88 7.52696V9.68929H8.04233ZM5.19984 7.52696C3.9667 7.69326 3.01472 8.75101 3.01472 10.0294C3.01472 11.4231 4.14622 12.5546 5.53992 12.5546C6.81828 12.5546 7.87608 11.6026 8.04233 10.3695H5.53992C5.3521 10.3695 5.19984 10.2172 5.19984 10.0294V7.52696ZM2.23739 15.0497C2.04972 15.0497 1.89731 14.8973 1.89731 14.7097C1.89731 14.5219 2.04972 14.3696 2.23739 14.3696H16.3494C16.5371 14.3696 16.6895 14.5219 16.6895 14.7097C16.6895 14.8973 16.5371 15.0497 16.3494 15.0497H2.23739ZM10.1178 7.78975C9.93007 7.78975 9.77772 7.63734 9.77772 7.44967C9.77772 7.26199 9.93007 7.10959 10.1178 7.10959H16.3494C16.5371 7.10959 16.6895 7.26199 16.6895 7.44967C16.6895 7.63734 16.5371 7.78975 16.3494 7.78975H10.1178ZM10.1178 9.60476C9.93007 9.60476 9.77772 9.45236 9.77772 9.26468C9.77772 9.07695 9.93007 8.9246 10.1178 8.9246H16.3494C16.5371 8.9246 16.6895 9.07695 16.6895 9.26468C16.6895 9.45236 16.5371 9.60476 16.3494 9.60476H10.1178ZM10.1178 11.4197C9.93007 11.4197 9.77772 11.2674 9.77772 11.0796C9.77772 10.892 9.93007 10.7396 10.1178 10.7396H16.3494C16.5371 10.7396 16.6895 10.892 16.6895 11.0796C16.6895 11.2674 16.5371 11.4197 16.3494 11.4197H10.1178ZM10.1178 13.2347C9.93007 13.2347 9.77772 13.0823 9.77772 12.8947C9.77772 12.7069 9.93007 12.5546 10.1178 12.5546H16.3494C16.5371 12.5546 16.6895 12.7069 16.6895 12.8947C16.6895 13.0823 16.5371 13.2347 16.3494 13.2347H10.1178ZM2.23739 16.8647C2.04972 16.8647 1.89731 16.7124 1.89731 16.5246C1.89731 16.337 2.04972 16.1845 2.23739 16.1845H16.3494C16.5371 16.1845 16.6895 16.337 16.6895 16.5246C16.6895 16.7124 16.5371 16.8647 16.3494 16.8647H2.23739Z" fill="white"/>
</svg>
