<svg width="24" height="24" viewBox="0 0 24 24" fill="none" xmlns="http://www.w3.org/2000/svg">
<path d="M1.71429 24H9.42857C9.88304 23.9993 10.3187 23.8046 10.6401 23.4585C10.9614 23.1125 11.1422 22.6433 11.1429 22.1538V9.23077C11.1422 8.74134 10.9614 8.27215 10.6401 7.92607C10.3187 7.57999 9.88304 7.38527 9.42857 7.38462H1.71429C1.25982 7.38527 0.824137 7.57999 0.502779 7.92607C0.181421 8.27215 0.000612294 8.74134 0 9.23077V22.1538C0.000612294 22.6433 0.181421 23.1125 0.502779 23.4585C0.824137 23.8046 1.25982 23.9993 1.71429 24ZM1.71429 9.23077H9.42857L9.43029 22.1538H1.71429V9.23077ZM23.1429 20.3077H12.8571C12.6298 20.3077 12.4118 20.2104 12.2511 20.0373C12.0903 19.8642 12 19.6294 12 19.3846C12 19.1398 12.0903 18.905 12.2511 18.7319C12.4118 18.5588 12.6298 18.4615 12.8571 18.4615H23.1429C23.3702 18.4615 23.5882 18.5588 23.7489 18.7319C23.9097 18.905 24 19.1398 24 19.3846C24 19.6294 23.9097 19.8642 23.7489 20.0373C23.5882 20.2104 23.3702 20.3077 23.1429 20.3077ZM23.1429 24H12.8571C12.6298 24 12.4118 23.9027 12.2511 23.7296C12.0903 23.5565 12 23.3217 12 23.0769C12 22.8321 12.0903 22.5973 12.2511 22.4242C12.4118 22.2511 12.6298 22.1538 12.8571 22.1538H23.1429C23.3702 22.1538 23.5882 22.2511 23.7489 22.4242C23.9097 22.5973 24 22.8321 24 23.0769C24 23.3217 23.9097 23.5565 23.7489 23.7296C23.5882 23.9027 23.3702 24 23.1429 24ZM0.857143 0H10.2857C10.513 0 10.7311 0.0972524 10.8918 0.270363C11.0526 0.443473 11.1429 0.678262 11.1429 0.923077C11.1429 1.16789 11.0526 1.40268 10.8918 1.57579C10.7311 1.7489 10.513 1.84615 10.2857 1.84615H0.857143C0.629814 1.84615 0.411797 1.7489 0.251051 1.57579C0.0903058 1.40268 0 1.16789 0 0.923077C0 0.678262 0.0903058 0.443473 0.251051 0.270363C0.411797 0.0972524 0.629814 0 0.857143 0ZM0.857143 3.69231H10.2857C10.513 3.69231 10.7311 3.78956 10.8918 3.96267C11.0526 4.13578 11.1429 4.37057 11.1429 4.61538C11.1429 4.8602 11.0526 5.09499 10.8918 5.2681C10.7311 5.44121 10.513 5.53846 10.2857 5.53846H0.857143C0.629814 5.53846 0.411797 5.44121 0.251051 5.2681C0.0903058 5.09499 0 4.8602 0 4.61538C0 4.37057 0.0903058 4.13578 0.251051 3.96267C0.411797 3.78956 0.629814 3.69231 0.857143 3.69231ZM22.2857 0H13.7143C13.2598 0.000659393 12.8241 0.195376 12.5028 0.541454C12.1814 0.887532 12.0006 1.35673 12 1.84615V14.7692C12.0006 15.2587 12.1814 15.7279 12.5028 16.0739C12.8241 16.42 13.2598 16.6147 13.7143 16.6154H22.2857C22.7402 16.6147 23.1759 16.42 23.4972 16.0739C23.8186 15.7279 23.9994 15.2587 24 14.7692V1.84615C23.9994 1.35673 23.8186 0.887532 23.4972 0.541454C23.1759 0.195376 22.7402 0.000659393 22.2857 0ZM13.7143 14.7692V1.84615H22.2857L22.2874 14.7692H13.7143Z" fill="white"/>
</svg>
