<svg width="24" height="23" viewBox="0 0 24 23" fill="none" xmlns="http://www.w3.org/2000/svg">
<path d="M10.8798 11.155C10.666 11.155 10.4935 11.3275 10.4935 11.5413C10.4935 12.4786 9.73127 13.2408 8.79393 13.2408H8.32526C7.38792 13.2408 6.62569 12.4786 6.62569 11.5413V9.63053C6.62569 7.53955 4.92355 5.8374 2.83257 5.8374H1.91068C1.69695 5.8374 1.52441 6.00993 1.52441 6.22367C1.52441 6.4374 1.69695 6.60993 1.91068 6.60993H2.83257C4.49866 6.60993 5.85316 7.96444 5.85316 9.63053V11.5413C5.85316 12.9035 6.96303 14.0134 8.32526 14.0134H8.79393C10.1562 14.0134 11.266 12.9035 11.266 11.5413C11.266 11.3275 11.0935 11.155 10.8798 11.155Z" fill="white"/>
<path d="M22.8695 0.331867C22.4266 -0.111051 21.7004 -0.111051 21.2523 0.334442L19.6764 1.91298H1.8721C0.839483 1.91298 0 2.75246 0 3.78508V16.2898C0 17.3224 0.839483 18.1619 1.8721 18.1619H9.11329C9.10556 18.2366 9.09784 18.319 9.08239 18.4117C8.98196 19.0786 8.66522 20.1421 7.66093 20.8606C7.44205 21.0151 7.19226 21.1567 6.90643 21.27C6.82145 21.3035 6.75192 21.3679 6.71072 21.4451C6.66952 21.5224 6.65149 21.6125 6.66952 21.7052C6.70557 21.8881 6.86265 22.0168 7.04806 22.0168H11.1862H15.3244C15.5098 22.0168 15.6695 21.8855 15.703 21.7052C15.721 21.6151 15.7056 21.5224 15.6618 21.4451C15.6206 21.3679 15.5536 21.3061 15.4661 21.27C15.1802 21.1542 14.9279 21.0151 14.7116 20.8606C13.7073 20.1421 13.388 19.0812 13.2901 18.4117C13.2772 18.319 13.2669 18.2366 13.2592 18.1619H20.5004C21.533 18.1619 22.3725 17.3224 22.3725 16.2898V4.04259L23.6652 2.74989C23.8815 2.53358 24.0025 2.24517 24 1.93616C24 1.62972 23.8789 1.34388 23.6652 1.13015L22.8695 0.331867ZM12.9167 10.2589L13.7433 11.0855L12.7287 11.2709L12.9167 10.2589ZM12.4918 18.1593C12.5047 18.2958 12.5253 18.4606 12.5588 18.646C12.6927 19.3825 13.0429 20.4357 13.9571 21.2391H11.1862H8.41801C9.33217 20.4357 9.68239 19.3851 9.81629 18.646C9.84977 18.4606 9.87037 18.2958 9.88325 18.1593H12.4918ZM21.6025 16.2872C21.6025 16.8924 21.1081 17.3868 20.503 17.3868H12.8807H12.8781H1.8721C1.26695 17.3868 0.772531 16.8924 0.772531 16.2872V3.78251C0.772531 3.17736 1.26695 2.68294 1.8721 2.68294H18.9038L12.4017 9.18765C12.3991 9.19022 12.3991 9.19022 12.3965 9.19022C12.3914 9.19537 12.3888 9.20567 12.3811 9.21082C12.3579 9.23915 12.3373 9.26748 12.3219 9.30095C12.3141 9.31898 12.309 9.337 12.3038 9.35503C12.2987 9.3679 12.2935 9.38078 12.291 9.39366L11.8712 11.6829C11.8481 11.8065 11.8893 11.9353 11.9794 12.0254C12 12.046 12.0232 12.064 12.0463 12.0795C12.0541 12.0846 12.0618 12.0872 12.0695 12.0924C12.0875 12.1027 12.1056 12.1104 12.1262 12.1181C12.1339 12.1207 12.1442 12.1233 12.1519 12.1258C12.1725 12.131 12.1905 12.1336 12.2111 12.1361C12.2189 12.1361 12.2292 12.1387 12.2369 12.1387C12.242 12.1387 12.2472 12.1413 12.2523 12.1413C12.2755 12.1413 12.2987 12.1387 12.3219 12.1361L14.6111 11.7164C14.6266 11.7138 14.6395 11.7061 14.6549 11.7009C14.6704 11.6958 14.6858 11.6932 14.7013 11.6855C14.7399 11.6675 14.7759 11.6443 14.8068 11.6134C14.8094 11.6108 14.812 11.6108 14.812 11.6082L21.6025 4.81512V16.2872ZM23.1219 2.20397L14.539 10.7868L13.2154 9.46318L20.109 2.56963C20.1116 2.56706 20.1116 2.56448 20.1141 2.56191L21.7957 0.880364C21.9425 0.736158 22.1768 0.733583 22.321 0.875214L23.1219 1.67607C23.1914 1.7456 23.23 1.8383 23.23 1.93616C23.23 2.03916 23.1914 2.13444 23.1219 2.20397Z" fill="white"/>
</svg>
