<svg width="57" height="68" viewBox="0 0 57 68" fill="none" xmlns="http://www.w3.org/2000/svg">
<path d="M46.219 32.0113C46.219 32.0113 45.8748 32.3538 45.1865 33.0386C44.4981 33.7235 43.177 34.0659 41.223 34.0659C39.269 34.0659 37.6036 33.3811 36.227 32.0113C34.8503 30.6416 34.162 28.9847 34.162 27.0406C34.162 25.0965 34.8503 23.4174 36.227 22.0035C37.6036 20.5896 39.269 19.8827 41.223 19.8827C43.177 19.8827 44.8423 20.5896 46.219 22.0035C47.5957 23.4174 48.284 25.0965 48.284 27.0406C48.284 28.9847 47.5957 30.6416 46.219 32.0113ZM25.9685 28.7638C25.9685 28.7638 25.5577 29.1835 24.7362 30.023C23.9146 30.8625 22.327 31.2823 19.9733 31.2823C17.6196 31.2823 15.599 30.4428 13.9115 28.7638C12.224 27.0848 11.3802 25.0744 11.3802 22.7326C11.3802 20.3908 12.224 18.4025 13.9115 16.7677C15.599 15.1328 17.6196 14.3154 19.9733 14.3154C22.327 14.3154 24.3254 15.1328 25.9685 16.7677C27.6116 18.4025 28.4332 20.3908 28.4332 22.7326C28.4332 25.0744 27.6116 27.0848 25.9685 28.7638ZM31.0311 41.8866C31.0311 41.8866 31.9304 41.5331 33.729 40.8262C35.5275 40.1192 38.0477 39.7657 41.2896 39.7657C44.5314 39.7657 47.9509 40.4727 51.548 41.8866C55.1452 43.3005 56.9437 45.1562 56.9437 47.4538V53.8164H25.6354V47.4538C25.6354 45.1562 27.434 43.3005 31.0311 41.8866ZM19.9067 36.8495C21.8607 36.8495 24.1255 37.1147 26.7013 37.6449C22.1715 40.1192 19.9067 43.3889 19.9067 47.4538V53.8164H0.0559082V46.7911C0.0559082 44.7586 1.27715 42.947 3.71964 41.3564C6.16213 39.7657 8.87108 38.6169 11.8465 37.91C14.8219 37.203 17.5086 36.8495 19.9067 36.8495Z" fill="#7BAE1D"/>
</svg>
