<svg width="39" height="59" viewBox="0 0 39 59" fill="none" xmlns="http://www.w3.org/2000/svg">
<path d="M24.3516 5.06005L38.9627 19.7813V49.2238C38.9627 50.5272 38.4871 51.6582 37.5359 52.6166C36.5846 53.575 35.4622 54.0542 34.1685 54.0542H4.83211C3.53842 54.0542 2.41595 53.575 1.46471 52.6166C0.513464 51.6582 0.0378418 50.5272 0.0378418 49.2238V9.89046C0.0378418 8.58701 0.513464 7.45608 1.46471 6.49767C2.41595 5.53925 3.57647 5.06005 4.94626 5.06005H24.3516ZM29.26 44.2784V39.333H9.74053V44.2784H29.26ZM29.26 34.5025V29.5571H9.74053V34.5025H29.26ZM21.9545 22.1965H35.31L21.9545 8.74036V22.1965Z" fill="#7BAE1D"/>
</svg>
