<svg width="228" height="247" viewBox="0 0 228 247" fill="none" xmlns="http://www.w3.org/2000/svg">
<path d="M0.498291 144.536V37.5363C0.498291 37.5363 0.498779 0.0362854 45.9985 0.0362854C91.4983 0.0362854 91.4983 37.5363 91.4983 37.5363V132.536C91.4983 132.536 89.4985 166.386 116.499 165.036C143.499 163.686 140.998 132.536 140.998 132.536V37.5363C140.998 37.5363 140.998 0.0362854 184.498 0.0362854C227.998 0.0362854 227.998 37.5363 227.998 37.5363V144.536C227.998 144.536 227.998 246.536 116.499 246.536C4.99876 246.536 0.498291 144.536 0.498291 144.536Z" fill="url(#paint0_linear_1_5)"/>
<path d="M227.498 34.0363C227.498 91.5363 140.998 91.5363 140.998 91.5363V36.5363C140.998 36.5363 141.499 0.0362854 184.498 0.0362854C227.498 0.0362854 227.498 34.0363 227.498 34.0363Z" fill="#D9D9D9"/>
<path d="M227.498 34.0363C227.498 91.5363 140.998 91.5363 140.998 91.5363V36.5363C140.998 36.5363 141.499 0.0362854 184.498 0.0362854C227.498 0.0362854 227.498 34.0363 227.498 34.0363Z" fill="url(#paint1_linear_1_5)"/>
<path d="M92.9984 150.533C89.9984 90.5414 0.998534 90.5382 0.998534 90.5382C-2.50175 153.536 1.49805 191.036 40.9984 223.536C93.9984 260.536 180.498 255.036 211.998 197.536C211.998 197.536 107.497 252.032 92.9984 150.533Z" fill="url(#paint2_linear_1_5)"/>
<defs>
<linearGradient id="paint0_linear_1_5" x1="114.248" y1="0.0362854" x2="114.248" y2="288.242" gradientUnits="userSpaceOnUse">
<stop stop-color="#2CC53E"/>
<stop offset="1" stop-color="#177421"/>
</linearGradient>
<linearGradient id="paint1_linear_1_5" x1="184.248" y1="0.0362854" x2="184.248" y2="107.017" gradientUnits="userSpaceOnUse">
<stop stop-color="#2CC53E"/>
<stop offset="1" stop-color="#177421"/>
</linearGradient>
<linearGradient id="paint2_linear_1_5" x1="109.998" y1="158.536" x2="106.498" y2="319.536" gradientUnits="userSpaceOnUse">
<stop stop-color="#2CC53E"/>
<stop offset="1" stop-color="#177421"/>
</linearGradient>
</defs>
</svg>
