<svg width="25" height="25" viewBox="0 0 25 25" fill="none" xmlns="http://www.w3.org/2000/svg">
<path d="M21.3847 4.41213C19.1184 2.14577 16.1059 0.898438 12.8984 0.898438C11.7235 0.898438 10.5597 1.06549 9.446 1.40517C9.26781 1.46085 9.16758 1.64461 9.22326 1.8228C9.27895 2.00099 9.46271 2.10122 9.6409 2.04554C10.6933 1.72814 11.7903 1.56665 12.904 1.56665C15.5267 1.56665 17.949 2.46317 19.8701 3.96665C19.7866 3.98336 19.6975 4.00563 19.614 4.03904C19.0126 4.24507 18.478 4.79078 18.2107 5.45899C17.9546 6.10493 17.9769 6.77872 18.272 7.35783C18.556 7.90354 19.1184 8.67199 19.7198 9.47384C20.0706 9.94716 20.839 11.7291 20.1653 14.3017C19.8312 15.5657 19.2576 17.4479 18.9068 18.5838L15.1537 7.65296H16.0223C16.4789 7.65296 16.852 7.27988 16.852 6.82326C16.852 6.36665 16.4789 5.99357 16.0223 5.99357H9.54066C9.08405 5.99357 8.71097 6.36665 8.71097 6.82326C8.71097 7.27988 9.08405 7.65296 9.54066 7.65296H10.4316L11.9574 11.3337L9.80238 17.7764L6.33881 7.65853H7.20749C7.6641 7.65853 8.03718 7.28544 8.03718 6.82883C8.03718 6.37222 7.6641 5.99913 7.20749 5.99913H3.91653C4.82419 4.81306 5.97686 3.7996 7.31329 3.03672C7.47477 2.94763 7.53046 2.74159 7.44136 2.58011C7.35227 2.41862 7.14623 2.36294 6.98475 2.45203C5.16944 3.48776 3.64925 4.98011 2.58011 6.77315C1.48312 8.62187 0.898438 10.7379 0.898438 12.8984C0.898438 16.1059 2.14577 19.1184 4.41213 21.3847C6.67848 23.6511 9.69101 24.8984 12.8984 24.8984C14.5523 24.8984 16.156 24.5699 17.6595 23.9184C17.8265 23.846 17.9045 23.6511 17.8321 23.4785C17.7597 23.3114 17.5648 23.2335 17.3922 23.3059C17.2585 23.3615 17.1249 23.4172 16.9912 23.4673L13.4609 13.8729C13.4107 13.7393 13.2882 13.6557 13.149 13.6557C13.0098 13.6557 12.8817 13.7448 12.8372 13.8785L9.30679 23.6455C8.88916 23.5063 8.48823 23.3448 8.09844 23.1611L2.57454 8.23765C2.81955 7.69194 3.10911 7.16294 3.44322 6.66735H7.20749C7.29658 6.66735 7.36897 6.73974 7.36897 6.82883C7.36897 6.91793 7.29658 6.99032 7.20749 6.99032H5.87106C5.76526 6.99032 5.65946 7.04043 5.59821 7.12953C5.53695 7.21862 5.52025 7.32999 5.55366 7.43022L9.49055 18.9235C9.5351 19.0571 9.66317 19.1518 9.80795 19.1518C9.95273 19.1518 10.0808 19.0571 10.1254 18.9235L12.6367 11.4284C12.6646 11.3504 12.659 11.2669 12.6312 11.1945L10.9718 7.19078C10.9216 7.06827 10.7991 6.98475 10.6655 6.98475H9.5518C9.46271 6.98475 9.39032 6.91236 9.39032 6.82326C9.39032 6.73417 9.46271 6.66178 9.5518 6.66178H16.0223C16.1114 6.66178 16.1838 6.73417 16.1838 6.82326C16.1838 6.91236 16.1114 6.98475 16.0223 6.98475H14.6859C14.5801 6.98475 14.4743 7.03486 14.4131 7.12396C14.3518 7.21305 14.3351 7.32442 14.3685 7.42466L18.6005 19.7588C18.6451 19.8924 18.7731 19.9871 18.9179 19.9871H18.9235C19.0683 19.9871 19.1963 19.8924 19.2353 19.7532C19.2465 19.7198 20.3045 16.3843 20.8056 14.4687C21.524 11.7402 20.7555 9.7467 20.2488 9.07292C19.6641 8.29333 19.1184 7.55273 18.8622 7.05157C18.6562 6.65064 18.6395 6.17176 18.8288 5.70957C19.0237 5.22512 19.4191 4.81305 19.8312 4.66827C20.0762 4.58475 20.3379 4.56247 20.6107 4.60145C21.73 5.64275 22.6376 6.90122 23.2613 8.31004C23.2669 9.17872 23.0497 9.83579 22.7212 10.8214C22.6488 11.0441 22.5708 11.2725 22.4873 11.5286C22.0196 12.982 19.5806 20.2154 18.7843 22.582C18.6841 22.6432 18.5783 22.7045 18.478 22.7602C18.3165 22.8493 18.2609 23.0553 18.3499 23.2168C18.4112 23.3226 18.5226 23.3838 18.6395 23.3838C18.6952 23.3838 18.7509 23.3671 18.8066 23.3393C22.5653 21.2121 24.8984 17.2084 24.8984 12.8929C24.8984 9.69101 23.6511 6.67848 21.3847 4.41213ZM13.1546 14.9588L16.3676 23.6901C15.2539 24.0465 14.0901 24.2302 12.904 24.2302C11.885 24.2302 10.8938 24.091 9.95273 23.8404L13.1546 14.9588ZM7.21305 22.6933C3.83858 20.7277 1.56665 17.0748 1.56665 12.8984C1.56665 11.6066 1.78939 10.3481 2.20145 9.16201L7.21305 22.6933ZM19.6975 21.9639C20.6776 19.0571 22.7045 13.0488 23.1221 11.7346C23.2001 11.4841 23.278 11.2557 23.3504 11.0386C23.5175 10.543 23.6567 10.1142 23.7625 9.68544C24.0632 10.7045 24.2302 11.7847 24.2302 12.8984C24.2302 16.4845 22.5207 19.8367 19.6975 21.9639Z" fill="white"/>
</svg>
