<svg width="24" height="24" viewBox="0 0 24 24" fill="none" xmlns="http://www.w3.org/2000/svg">
<path d="M16.3749 2.79986C16.3731 2.80033 16.0711 2.88293 15.5614 3.02233C15.4764 2.77825 15.3509 2.4784 15.1721 2.17718C14.5956 1.20565 13.7517 0.691382 12.7316 0.690069C12.7305 0.690069 12.7294 0.690069 12.7282 0.690069C12.6575 0.690069 12.587 0.695976 12.5165 0.701601C12.4865 0.669726 12.4562 0.638085 12.4243 0.607898C11.9802 0.187945 11.4099 -0.0166175 10.7273 0.00105437C9.4097 0.0344293 8.09812 0.874991 7.03432 2.36777C6.28546 3.41843 5.71658 4.73824 5.55475 5.75978C4.04219 6.1736 2.98385 6.46314 2.96098 6.46952C2.19748 6.6812 2.1735 6.70239 2.07338 7.33792C1.99756 7.81905 0 21.4675 0 21.4675L16.5756 24V2.76991C16.4938 2.7745 16.4207 2.78796 16.3749 2.79986ZM12.5474 3.84682C11.6703 4.08677 10.7126 4.34875 9.75208 4.61153C10.0225 3.69752 10.5345 2.78754 11.1635 2.19129C11.3976 1.96952 11.7249 1.72207 12.1126 1.58074C12.4772 2.25213 12.5562 3.20388 12.5474 3.84682ZM10.7526 0.775522C11.062 0.769804 11.3225 0.829757 11.545 0.959132C11.1891 1.12235 10.8449 1.35705 10.522 1.66296C9.68513 2.45608 9.04414 3.68754 8.7885 4.87511C7.99073 5.09336 7.21047 5.30678 6.49265 5.50319C6.94545 3.63293 8.71926 0.827179 10.7526 0.775522ZM8.18906 11.4267C8.27809 12.6725 11.9877 12.9447 12.1962 15.8626C12.3603 18.1583 10.818 19.7286 8.59564 19.8526C5.92881 20.0014 4.46039 18.6112 4.46039 18.6112L5.02545 16.4871C5.02545 16.4871 6.50321 17.4722 7.68618 17.4062C8.45886 17.3631 8.73502 16.8079 8.70696 16.4152C8.59081 14.7901 5.57009 14.8859 5.37924 12.2156C5.21863 9.96831 6.88894 7.69164 10.5746 7.48605C11.9948 7.40683 12.7219 7.72717 12.7219 7.72717L11.8791 10.5127C11.8791 10.5127 10.9389 10.1345 9.82435 10.1966C8.19007 10.2877 8.17272 11.1985 8.18906 11.4267ZM13.4233 3.60724C13.4136 3.01783 13.3339 2.19799 13.0231 1.48929C14.0227 1.65663 14.515 2.65591 14.7227 3.25179C14.3375 3.35716 13.8986 3.47716 13.4233 3.60724Z" fill="white"/>
<path d="M17.1237 23.9421L24 22.432C24 22.432 21.0394 4.7476 21.0206 4.62634C21.0018 4.50503 20.8816 4.43795 20.7824 4.43064C20.6832 4.42332 18.7474 4.39731 18.7474 4.39731C18.7474 4.39731 17.5671 3.38457 17.1237 3.00146V23.9421H17.1237Z" fill="white"/>
</svg>
