<svg width="24" height="24" viewBox="0 0 24 24" fill="none" xmlns="http://www.w3.org/2000/svg">
<path fill-rule="evenodd" clip-rule="evenodd" d="M2.21802 0.991904C1.59386 0.991904 0.945425 1.66715 0.945425 2.68265V6.55465H21.3451V2.68265C21.3451 1.66831 20.6965 0.991904 20.0725 0.991904H2.21802ZM22.2905 7.04607V2.68265C22.2905 1.29305 21.3692 0 20.0725 0H2.21802C0.921529 0 0 1.29146 0 2.68265V16.5441C0 17.934 0.92299 19.2267 2.21802 19.2267H4.99146C5.25253 19.2267 5.46417 19.0047 5.46417 18.7308C5.46417 18.4569 5.25253 18.2348 4.99146 18.2348H2.21802C1.59521 18.2348 0.945425 17.5582 0.945425 16.5441V7.54655H21.3451V12.5571C21.0224 12.5044 20.6808 12.6079 20.433 12.8687C20.4327 12.869 20.4324 12.8693 20.4321 12.8696L20.3058 13.0015C20.0291 12.8483 19.737 12.7209 19.4321 12.6232V12.4464C19.4321 11.8338 18.956 11.3348 18.3723 11.3348H17.5169C16.9319 11.3348 16.4585 11.8353 16.4585 12.4464V12.6352C16.1613 12.7332 15.8758 12.8591 15.605 13.0102L15.4825 12.8822C15.4822 12.8819 15.4819 12.8815 15.4816 12.8812C15.069 12.4471 14.3965 12.4489 13.9843 12.8811L13.9843 12.8811L13.38 13.5149C12.9676 13.9473 12.966 14.653 13.3801 15.0857C13.3804 15.086 13.3806 15.0863 13.3809 15.0866L13.51 15.2224C13.3696 15.5036 13.2527 15.7997 13.1618 16.108H12.9823C12.398 16.108 11.9238 16.6077 11.9238 17.2182V18.1166C11.9238 18.1565 11.9258 18.196 11.9297 18.2348L9.17947 18.2348C8.9184 18.2348 8.70676 18.4569 8.70676 18.7308C8.70676 19.0047 8.9184 19.2267 9.17947 19.2267L13.1637 19.2268C13.2558 19.5376 13.3746 19.8363 13.5174 20.1195L13.3912 20.2514L13.3897 20.253C12.9796 20.6855 12.9782 21.3902 13.3906 21.8227C13.3906 21.8227 13.3906 21.8227 13.3906 21.8227L13.9953 22.4568C13.9955 22.457 13.9957 22.4572 13.9958 22.4574C14.4084 22.8918 15.0811 22.8902 15.4934 22.4578L15.4935 22.4578L15.6201 22.3249C15.891 22.4746 16.1767 22.5997 16.4744 22.6963V22.8884C16.4744 23.5003 16.9498 24 17.5329 24H18.3896C18.9726 24 19.4481 23.5003 19.4481 22.8884V22.6976C19.7471 22.6007 20.0339 22.4755 20.3059 22.325L20.4321 22.4568C20.4324 22.4572 20.4327 22.4575 20.4331 22.4579C20.8457 22.8919 21.518 22.89 21.9302 22.4578L22.5336 21.8237C22.5339 21.8233 22.5343 21.823 22.5346 21.8226C22.9486 21.3899 22.9468 20.6844 22.5346 20.252L22.5345 20.252L22.4083 20.1196C22.5507 19.8364 22.6693 19.5378 22.7615 19.2268H22.9402C23.5231 19.2268 24 18.7285 24 18.1166V17.2182C24 16.6063 23.5232 16.108 22.9402 16.108H22.7646C22.6721 15.794 22.5526 15.4922 22.4083 15.2059L22.5336 15.0741C22.5339 15.0737 22.5343 15.0734 22.5346 15.073C22.9486 14.6403 22.9469 13.9347 22.5346 13.5024L22.2905 13.2465V7.05513C22.2906 7.05362 22.2906 7.05211 22.2906 7.0506C22.2906 7.04909 22.2906 7.04758 22.2905 7.04607ZM21.4875 13.8068C21.4849 13.8041 21.4823 13.8014 21.4798 13.7987L21.2619 13.5702C21.2619 13.5702 21.2619 13.5702 21.2619 13.5702C21.2174 13.5236 21.1441 13.5251 21.1024 13.5691L21.1008 13.5708L20.7169 13.9719C20.561 14.1348 20.3186 14.1633 20.1321 14.0406C19.7444 13.7855 19.3149 13.5961 18.8567 13.489C18.6405 13.4385 18.4867 13.2372 18.4867 13.0049V12.4464C18.4867 12.3821 18.4343 12.3267 18.3723 12.3267H17.5169C17.4564 12.3267 17.4039 12.3806 17.4039 12.4464V13.0132C17.4039 13.2436 17.2527 13.4437 17.0389 13.4961C16.5861 13.6073 16.1623 13.7959 15.7816 14.0492C15.595 14.1733 15.3514 14.1452 15.1949 13.9817L14.8137 13.5833L14.8122 13.5817C14.7704 13.5376 14.6971 13.5361 14.6527 13.5827M14.6526 13.5827L14.0483 14.2164C14.0483 14.2164 14.0483 14.2164 14.0483 14.2164C14.0041 14.2629 14.0055 14.3393 14.0474 14.383L14.0489 14.3846L14.4341 14.7899C14.5892 14.9532 14.6167 15.2071 14.5004 15.4027C14.2635 15.8009 14.0874 16.2425 13.9852 16.714C13.9362 16.9398 13.7449 17.0999 13.5242 17.0999H12.9823C12.921 17.0999 12.8692 17.1546 12.8692 17.2182V18.1166C12.8692 18.1801 12.921 18.2349 12.9823 18.2349H13.5255C13.7459 18.2349 13.9371 18.3947 13.9863 18.6201C14.0898 19.094 14.2681 19.5379 14.5083 19.9368C14.6264 20.1332 14.599 20.3892 14.4422 20.553L14.0599 20.9526C14.0598 20.9527 14.0596 20.9528 14.0595 20.953C14.0157 20.9997 14.0172 21.0773 14.0589 21.1211L14.6646 21.7563L14.6655 21.7573C14.7074 21.8014 14.7806 21.8028 14.8251 21.7563C14.8251 21.7563 14.8251 21.7563 14.8251 21.7562L15.2076 21.3551C15.3633 21.1918 15.6059 21.1629 15.7926 21.2855C16.1758 21.5371 16.6007 21.7253 17.0514 21.8323C17.2669 21.8834 17.4198 22.0842 17.4198 22.316V22.8884C17.4198 22.9535 17.473 23.0081 17.5329 23.0081H18.3896C18.4495 23.0081 18.5027 22.9535 18.5027 22.8884V22.3174C18.5027 22.0859 18.6553 21.8852 18.8704 21.8338C19.3251 21.7252 19.7498 21.538 20.1317 21.2861C20.3181 21.163 20.5609 21.1914 20.7169 21.3545L21.1008 21.7557L21.1024 21.7573C21.1441 21.8013 21.2173 21.8029 21.2617 21.7564C21.2618 21.7564 21.2618 21.7563 21.2619 21.7562L21.8658 21.1215L21.8672 21.1201C21.9091 21.0764 21.9105 21 21.8662 20.9536C21.8662 20.9536 21.8662 20.9535 21.8662 20.9535L21.4837 20.5525C21.3276 20.3888 21.3002 20.1337 21.4176 19.9377C21.6569 19.5383 21.8353 19.094 21.9389 18.62C21.9881 18.3946 22.1792 18.2349 22.3996 18.2349H22.9402C23.0029 18.2349 23.0546 18.1787 23.0546 18.1166V17.2182C23.0546 17.156 23.0028 17.0999 22.9402 17.0999H22.4023C22.1817 17.0999 21.9904 16.9399 21.9414 16.7142C21.8378 16.2372 21.6593 15.7907 21.418 15.3894C21.3003 15.1936 21.3273 14.9385 21.4831 14.7746L21.8657 14.3721L21.8672 14.3705C21.9091 14.3268 21.9105 14.2503 21.8662 14.2039L21.4875 13.8068M14.0595 3.12014C13.708 3.12014 13.4191 3.42346 13.4191 3.79136C13.4191 4.15929 13.708 4.46257 14.0595 4.46257H18.2515C18.603 4.46257 18.8918 4.15929 18.8918 3.79136C18.8918 3.42346 18.603 3.12014 18.2515 3.12014H14.0595ZM12.4737 3.79136C12.4737 2.87513 13.1863 2.12824 14.0595 2.12824H18.2515C19.1246 2.12824 19.8373 2.87513 19.8373 3.79136C19.8373 4.70765 19.1246 5.45448 18.2515 5.45448H14.0595C13.1864 5.45448 12.4737 4.70765 12.4737 3.79136ZM2.79997 3.79138C2.79997 2.87333 3.51301 2.12826 4.38577 2.12826C5.25953 2.12826 5.97288 2.87297 5.97288 3.79138C5.97288 4.7098 5.25953 5.4545 4.38577 5.4545C3.51301 5.4545 2.79997 4.70943 2.79997 3.79138ZM4.38577 3.12017C4.03391 3.12017 3.74539 3.42245 3.74539 3.79138C3.74539 4.16031 4.03391 4.4626 4.38577 4.4626C4.73933 4.4626 5.02745 4.15995 5.02745 3.79138C5.02745 3.42282 4.73933 3.12017 4.38577 3.12017ZM6.9096 3.79138C6.9096 2.87333 7.62264 2.12826 8.4954 2.12826C9.36916 2.12826 10.0825 2.87297 10.0825 3.79138C10.0825 4.7098 9.36916 5.4545 8.4954 5.4545C7.62264 5.4545 6.9096 4.70943 6.9096 3.79138ZM8.4954 3.12017C8.14354 3.12017 7.85502 3.42245 7.85502 3.79138C7.85502 4.16031 8.14354 4.4626 8.4954 4.4626C8.84896 4.4626 9.13708 4.15995 9.13708 3.79138C9.13708 3.42282 8.84896 3.12017 8.4954 3.12017ZM7.72465 10.3497C7.97857 10.4134 8.13522 10.6809 8.07454 10.9474L7.13676 15.0646C7.07608 15.331 6.82104 15.4953 6.56712 15.4317C6.3132 15.368 6.15654 15.1004 6.21722 14.834L7.15501 10.7168C7.21569 10.4504 7.47073 10.2861 7.72465 10.3497ZM4.83172 10.8337C5.02666 11.0158 5.04392 11.3293 4.87026 11.5339L3.71822 12.8907L4.87026 14.2475C5.04392 14.4521 5.02666 14.7656 4.83172 14.9477C4.63678 15.1299 4.33797 15.1118 4.16431 14.9073L2.83887 13.3462C2.83856 13.3459 2.83825 13.3455 2.83795 13.3452C2.6191 13.0887 2.6191 12.6927 2.83795 12.4362C2.83825 12.4359 2.83856 12.4355 2.83887 12.4352L4.16431 10.8741C4.33797 10.6696 4.63678 10.6515 4.83172 10.8337ZM9.46011 10.8337C9.65505 10.6515 9.95386 10.6696 10.1275 10.8741L11.4531 12.4353C11.4534 12.4357 11.4537 12.4361 11.454 12.4364C11.6726 12.6928 11.6726 13.0886 11.454 13.345C11.4537 13.3453 11.4534 13.3457 11.4531 13.3461L10.1275 14.9073C9.95386 15.1118 9.65505 15.1299 9.46011 14.9477C9.26517 14.7656 9.24791 14.4521 9.42157 14.2475L10.5736 12.8907L9.42157 11.5339C9.24791 11.3293 9.26517 11.0159 9.46011 10.8337ZM17.9619 15.6305C16.8879 15.6305 16.0185 16.5425 16.0185 17.6681C16.0185 18.7922 16.8877 19.7043 17.9619 19.7043C19.0346 19.7043 19.904 18.7923 19.904 17.6681C19.904 16.5423 19.0345 15.6305 17.9619 15.6305ZM15.073 17.6681C15.073 15.9942 16.3662 14.6386 17.9619 14.6386C19.5565 14.6386 20.8494 15.9943 20.8494 17.6681C20.8494 19.3407 19.5563 20.6962 17.9619 20.6962C16.3664 20.6962 15.073 19.3409 15.073 17.6681ZM6.61742 18.7308C6.61742 18.4569 6.82906 18.2348 7.09013 18.2348H7.09941C7.36048 18.2348 7.57212 18.4569 7.57212 18.7308C7.57212 19.0047 7.36048 19.2267 7.09941 19.2267H7.09013C6.82906 19.2267 6.61742 19.0047 6.61742 18.7308Z" fill="white"/>
</svg>
