<svg width="26" height="26" viewBox="0 0 26 26" fill="none" xmlns="http://www.w3.org/2000/svg">
<path d="M1 1V0.75H0.75V1H1ZM25 1H25.25V0.75H25V1ZM25 25V25.25H25.25V25H25ZM1 25H0.75V25.25H1V25ZM2.03906 12.3487C2.03906 12.4868 2.15099 12.5987 2.28906 12.5987C2.42713 12.5987 2.53906 12.4868 2.53906 12.3487H2.03906ZM2.53906 3.248C2.53906 3.10993 2.42713 2.998 2.28906 2.998C2.15099 2.998 2.03906 3.10993 2.03906 3.248H2.53906ZM2.03906 22.763C2.03906 22.901 2.15099 23.013 2.28906 23.013C2.42713 23.013 2.53906 22.901 2.53906 22.763H2.03906ZM2.53906 13.6473C2.53906 13.5092 2.42713 13.3973 2.28906 13.3973C2.15099 13.3973 2.03906 13.5092 2.03906 13.6473H2.53906ZM12.3547 23.9609C12.4928 23.9609 12.6047 23.849 12.6047 23.7109C12.6047 23.5729 12.4928 23.4609 12.3547 23.4609V23.9609ZM3.24001 23.4609C3.10194 23.4609 2.99001 23.5729 2.99001 23.7109C2.99001 23.849 3.10194 23.9609 3.24001 23.9609V23.4609ZM19.022 23.9609C19.1601 23.9609 19.272 23.849 19.272 23.7109C19.272 23.5729 19.1601 23.4609 19.022 23.4609V23.9609ZM13.6413 23.4609C13.5032 23.4609 13.3913 23.5729 13.3913 23.7109C13.3913 23.849 13.5032 23.9609 13.6413 23.9609V23.4609ZM22.762 23.9609C22.9 23.9609 23.012 23.849 23.012 23.7109C23.012 23.5729 22.9 23.4609 22.762 23.4609V23.9609ZM20.6653 23.4609C20.5272 23.4609 20.4153 23.5729 20.4153 23.7109C20.4153 23.849 20.5272 23.9609 20.6653 23.9609V23.4609ZM23.9609 13.6383C23.9609 13.5002 23.849 13.3883 23.7109 13.3883C23.5729 13.3883 23.4609 13.5002 23.4609 13.6383H23.9609ZM23.4609 22.765C23.4609 22.903 23.5729 23.015 23.7109 23.015C23.849 23.015 23.9609 22.903 23.9609 22.765H23.4609ZM23.9609 3.23206C23.9609 3.09398 23.849 2.98206 23.7109 2.98206C23.5729 2.98206 23.4609 3.09398 23.4609 3.23206H23.9609ZM23.4609 12.3637C23.4609 12.5018 23.5729 12.6137 23.7109 12.6137C23.849 12.6137 23.9609 12.5018 23.9609 12.3637H23.4609ZM13.6393 2.03906C13.5012 2.03906 13.3893 2.15099 13.3893 2.28906C13.3893 2.42713 13.5012 2.53906 13.6393 2.53906V2.03906ZM22.768 2.53906C22.906 2.53906 23.018 2.42713 23.018 2.28906C23.018 2.15099 22.906 2.03906 22.768 2.03906V2.53906ZM7.21535 2.03906C7.07728 2.03906 6.96535 2.15099 6.96535 2.28906C6.96535 2.42713 7.07728 2.53906 7.21535 2.53906V2.03906ZM12.3597 2.53906C12.4978 2.53906 12.6097 2.42713 12.6097 2.28906C12.6097 2.15099 12.4978 2.03906 12.3597 2.03906V2.53906ZM3.24103 2.03906C3.10296 2.03906 2.99103 2.15099 2.99103 2.28906C2.99103 2.42713 3.10296 2.53906 3.24103 2.53906V2.03906ZM5.52501 2.53906C5.66308 2.53906 5.77501 2.42713 5.77501 2.28906C5.77501 2.15099 5.66308 2.03906 5.52501 2.03906V2.53906ZM3.22656 1.35156H3.47656C3.47656 1.21349 3.36463 1.10156 3.22656 1.10156V1.35156ZM1.35156 1.35156V1.10156C1.21349 1.10156 1.10156 1.21349 1.10156 1.35156H1.35156ZM1.35156 3.22656H1.10156C1.10156 3.36463 1.21349 3.47656 1.35156 3.47656V3.22656ZM3.22656 3.22656V3.47656C3.36463 3.47656 3.47656 3.36463 3.47656 3.22656H3.22656ZM24.6484 1.35156H24.8984C24.8984 1.21349 24.7865 1.10156 24.6484 1.10156V1.35156ZM22.7734 1.35156V1.10156C22.6354 1.10156 22.5234 1.21349 22.5234 1.35156H22.7734ZM22.7734 3.22656H22.5234C22.5234 3.36463 22.6354 3.47656 22.7734 3.47656V3.22656ZM24.6484 3.22656V3.47656C24.7865 3.47656 24.8984 3.36463 24.8984 3.22656H24.6484ZM24.3438 12.3672H24.5938C24.5938 12.2291 24.4818 12.1172 24.3438 12.1172V12.3672ZM23.0781 12.3672V12.1172C22.9401 12.1172 22.8281 12.2291 22.8281 12.3672H23.0781ZM23.0781 13.6328H22.8281C22.8281 13.7709 22.9401 13.8828 23.0781 13.8828V13.6328ZM24.3438 13.6328V13.8828C24.4818 13.8828 24.5938 13.7709 24.5938 13.6328H24.3438ZM2.92188 12.3672H3.17188C3.17188 12.2291 3.05995 12.1172 2.92188 12.1172V12.3672ZM1.65625 12.3672V12.1172C1.51818 12.1172 1.40625 12.2291 1.40625 12.3672H1.65625ZM1.65625 13.6328H1.40625C1.40625 13.7709 1.51818 13.8828 1.65625 13.8828V13.6328ZM2.92188 13.6328V13.8828C3.05995 13.8828 3.17188 13.7709 3.17188 13.6328H2.92188ZM13.6328 1.65625H13.8828C13.8828 1.51818 13.7709 1.40625 13.6328 1.40625V1.65625ZM12.3672 1.65625V1.40625C12.2291 1.40625 12.1172 1.51818 12.1172 1.65625H12.3672ZM12.3672 2.92187H12.1172C12.1172 3.05994 12.2291 3.17187 12.3672 3.17187V2.92187ZM13.6328 2.92187V3.17187C13.7709 3.17187 13.8828 3.05994 13.8828 2.92187H13.6328ZM13.6328 23.0781H13.8828C13.8828 22.9401 13.7709 22.8281 13.6328 22.8281V23.0781ZM12.3672 23.0781V22.8281C12.2291 22.8281 12.1172 22.9401 12.1172 23.0781H12.3672ZM12.3672 24.3438H12.1172C12.1172 24.4818 12.2291 24.5938 12.3672 24.5938V24.3438ZM13.6328 24.3438V24.5938C13.7709 24.5938 13.8828 24.4818 13.8828 24.3438H13.6328ZM3.22656 22.7734H3.47656C3.47656 22.6354 3.36463 22.5234 3.22656 22.5234V22.7734ZM1.35156 22.7734V22.5234C1.21349 22.5234 1.10156 22.6354 1.10156 22.7734H1.35156ZM1.35156 24.6484H1.10156C1.10156 24.7865 1.21349 24.8984 1.35156 24.8984V24.6484ZM3.22656 24.6484V24.8984C3.36463 24.8984 3.47656 24.7865 3.47656 24.6484H3.22656ZM24.6484 22.7734H24.8984C24.8984 22.6354 24.7865 22.5234 24.6484 22.5234V22.7734ZM22.7734 22.7734V22.5234C22.6354 22.5234 22.5234 22.6354 22.5234 22.7734H22.7734ZM22.7734 24.6484H22.5234C22.5234 24.7865 22.6354 24.8984 22.7734 24.8984V24.6484ZM24.6484 24.6484V24.8984C24.7865 24.8984 24.8984 24.7865 24.8984 24.6484H24.6484ZM9.3464 15.1707L9.11033 15.0884C9.08369 15.1649 9.09571 15.2495 9.1426 15.3155C9.1895 15.3815 9.26544 15.4207 9.3464 15.4207V15.1707ZM11.8598 7.95881L12.0958 7.87607C12.0606 7.77579 11.9659 7.7087 11.8596 7.70881C11.7533 7.70891 11.6587 7.77618 11.6238 7.87653L11.8598 7.95881ZM14.3893 15.1707V15.4207C14.4704 15.4207 14.5464 15.3814 14.5933 15.3153C14.6401 15.2492 14.652 15.1644 14.6252 15.088L14.3893 15.1707ZM14.5535 9.37197C14.5992 9.50225 14.7419 9.57082 14.8721 9.52512C15.0024 9.47942 15.071 9.33675 15.0253 9.20646L14.5535 9.37197ZM13.4644 5.51202L13.7003 5.42927L13.7002 5.42886L13.4644 5.51202ZM12.9997 5.13342L13.0337 4.88574L13.0334 4.8857L12.9997 5.13342ZM10.2547 5.51202L10.019 5.42895L10.0188 5.42927L10.2547 5.51202ZM4.97409 20.566L5.20995 20.6489L5.21 20.6487L4.97409 20.566ZM7.27486 20.7598L7.42278 20.9614L7.42295 20.9612L7.27486 20.7598ZM7.47272 20.4975L7.70699 20.5848L7.70706 20.5846L7.47272 20.4975ZM7.95259 19.9239C8.00069 19.7945 7.93476 19.6506 7.80533 19.6025C7.67591 19.5544 7.532 19.6203 7.48391 19.7498L7.95259 19.9239ZM8.05906 18.2021C8.01096 18.3315 8.07689 18.4754 8.20631 18.5235C8.33574 18.5716 8.47965 18.5057 8.52774 18.3763L8.05906 18.2021ZM8.58117 17.5148V17.2648C8.47669 17.2648 8.38322 17.3298 8.34683 17.4278L8.58117 17.5148ZM15.146 17.5148L15.3806 17.4285C15.3444 17.3302 15.2507 17.2648 15.146 17.2648V17.5148ZM16.243 20.4959L16.4777 20.4098L16.4776 20.4095L16.243 20.4959ZM18.7245 20.761L18.5113 20.6305L18.5101 20.6324L18.7245 20.761ZM18.7451 20.566L18.9812 20.4839L18.981 20.4832L18.7451 20.566ZM15.5705 10.7606C15.5247 10.6303 15.3821 10.5617 15.2518 10.6074C15.1215 10.6531 15.0529 10.7958 15.0986 10.9261L15.5705 10.7606ZM11.0963 17.6019C11.1444 17.4725 11.0785 17.3286 10.9491 17.2805C10.8197 17.2324 10.6758 17.2983 10.6277 17.4277L11.0963 17.6019ZM9.75354 20.4975L9.98776 20.585L9.98788 20.5846L9.75354 20.4975ZM9.21528 20.8716V20.6216H9.21527L9.21528 20.8716ZM11.3911 15.0884C11.3457 15.2188 11.4146 15.3613 11.5449 15.4068C11.6753 15.4522 11.8178 15.3833 11.8633 15.253L11.3911 15.0884ZM15.2036 5.12829V4.87829H15.2036L15.2036 5.12829ZM15.7452 5.51206L15.9811 5.42931L15.981 5.42896L15.7452 5.51206ZM21.0259 20.566L20.79 20.6487L20.79 20.6488L21.0259 20.566ZM20.8092 20.8716V20.6216H20.8092L20.8092 20.8716ZM1 1V1.25H25V1V0.75H1V1ZM25 1H24.75V25H25H25.25V1H25ZM25 25V24.75H1V25V25.25H25V25ZM1 25H1.25V1H1H0.75V25H1ZM2.28906 12.3487H2.53906V3.248H2.28906H2.03906V12.3487H2.28906ZM2.28906 22.763H2.53906V13.6473H2.28906H2.03906V22.763H2.28906ZM12.3547 23.7109V23.4609H3.24001V23.7109V23.9609H12.3547V23.7109ZM19.022 23.7109V23.4609H13.6413V23.7109V23.9609H19.022V23.7109ZM22.762 23.7109V23.4609H20.6653V23.7109V23.9609H22.762V23.7109ZM23.7109 13.6383H23.4609V22.765H23.7109H23.9609V13.6383H23.7109ZM23.7109 3.23206H23.4609V12.3637H23.7109H23.9609V3.23206H23.7109ZM13.6393 2.28906V2.53906H22.768V2.28906V2.03906H13.6393V2.28906ZM7.21535 2.28906V2.53906H12.3597V2.28906V2.03906H7.21535V2.28906ZM3.24103 2.28906V2.53906H5.52501V2.28906V2.03906H3.24103V2.28906ZM3.22656 1.35156V1.10156H1.35156V1.35156V1.60156H3.22656V1.35156ZM1.35156 1.35156H1.10156V3.22656H1.35156H1.60156V1.35156H1.35156ZM1.35156 3.22656V3.47656H3.22656V3.22656V2.97656H1.35156V3.22656ZM3.22656 3.22656H3.47656V1.35156H3.22656H2.97656V3.22656H3.22656ZM24.6484 1.35156V1.10156H22.7734V1.35156V1.60156H24.6484V1.35156ZM22.7734 1.35156H22.5234V3.22656H22.7734H23.0234V1.35156H22.7734ZM22.7734 3.22656V3.47656H24.6484V3.22656V2.97656H22.7734V3.22656ZM24.6484 3.22656H24.8984V1.35156H24.6484H24.3984V3.22656H24.6484ZM24.3438 12.3672V12.1172H23.0781V12.3672V12.6172H24.3438V12.3672ZM23.0781 12.3672H22.8281V13.6328H23.0781H23.3281V12.3672H23.0781ZM23.0781 13.6328V13.8828H24.3438V13.6328V13.3828H23.0781V13.6328ZM24.3438 13.6328H24.5938V12.3672H24.3438H24.0938V13.6328H24.3438ZM2.92188 12.3672V12.1172H1.65625V12.3672V12.6172H2.92188V12.3672ZM1.65625 12.3672H1.40625V13.6328H1.65625H1.90625V12.3672H1.65625ZM1.65625 13.6328V13.8828H2.92188V13.6328V13.3828H1.65625V13.6328ZM2.92188 13.6328H3.17188V12.3672H2.92188H2.67188V13.6328H2.92188ZM13.6328 1.65625V1.40625H12.3672V1.65625V1.90625H13.6328V1.65625ZM12.3672 1.65625H12.1172V2.92187H12.3672H12.6172V1.65625H12.3672ZM12.3672 2.92187V3.17187H13.6328V2.92187V2.67187H12.3672V2.92187ZM13.6328 2.92187H13.8828V1.65625H13.6328H13.3828V2.92187H13.6328ZM13.6328 23.0781V22.8281H12.3672V23.0781V23.3281H13.6328V23.0781ZM12.3672 23.0781H12.1172V24.3438H12.3672H12.6172V23.0781H12.3672ZM12.3672 24.3438V24.5938H13.6328V24.3438V24.0938H12.3672V24.3438ZM13.6328 24.3438H13.8828V23.0781H13.6328H13.3828V24.3438H13.6328ZM3.22656 22.7734V22.5234H1.35156V22.7734V23.0234H3.22656V22.7734ZM1.35156 22.7734H1.10156V24.6484H1.35156H1.60156V22.7734H1.35156ZM1.35156 24.6484V24.8984H3.22656V24.6484V24.3984H1.35156V24.6484ZM3.22656 24.6484H3.47656V22.7734H3.22656H2.97656V24.6484H3.22656ZM24.6484 22.7734V22.5234H22.7734V22.7734V23.0234H24.6484V22.7734ZM22.7734 22.7734H22.5234V24.6484H22.7734H23.0234V22.7734H22.7734ZM22.7734 24.6484V24.8984H24.6484V24.6484V24.3984H22.7734V24.6484ZM24.6484 24.6484H24.8984V22.7734H24.6484H24.3984V24.6484H24.6484ZM9.3464 15.1707L9.58248 15.253L12.0959 8.04108L11.8598 7.95881L11.6238 7.87653L9.11033 15.0884L9.3464 15.1707ZM11.8598 7.95881L11.6239 8.04154L12.7678 11.3031L13.0037 11.2204L13.2396 11.1376L12.0958 7.87607L11.8598 7.95881ZM13.0037 11.2204L12.7678 11.3031L14.1534 15.2535L14.3893 15.1707L14.6252 15.088L13.2396 11.1376L13.0037 11.2204ZM14.3893 15.1707V14.9207H9.3464V15.1707V15.4207H14.3893V15.1707ZM14.7894 9.28921L15.0253 9.20646L13.7003 5.42927L13.4644 5.51202L13.2285 5.59478L14.5535 9.37197L14.7894 9.28921ZM13.4644 5.51202L13.7002 5.42886C13.5962 5.13406 13.3367 4.92737 13.0337 4.88574L12.9997 5.13342L12.9657 5.38109C13.0858 5.39759 13.1878 5.47936 13.2287 5.59519L13.4644 5.51202ZM12.9997 5.13342L13.0334 4.8857C12.9966 4.88069 12.9597 4.87831 12.9227 4.87831V5.12831V5.37831C12.9382 5.37831 12.9525 5.3793 12.966 5.38113L12.9997 5.13342ZM12.9227 5.12831V4.87831H10.7964V5.12831V5.37831H12.9227V5.12831ZM10.7964 5.12831V4.87831C10.4468 4.87831 10.1351 5.09927 10.019 5.42895L10.2547 5.51202L10.4905 5.5951C10.5363 5.46521 10.6591 5.37831 10.7964 5.37831V5.12831ZM10.2547 5.51202L10.0188 5.42927L4.73818 20.4832L4.97409 20.566L5.21 20.6487L10.4907 5.59478L10.2547 5.51202ZM4.97409 20.566L4.73823 20.4831C4.62841 20.7956 4.86102 21.1216 5.19075 21.1216V20.8716V20.6216C5.19318 20.6216 5.19695 20.6224 5.2006 20.6243C5.20384 20.626 5.20597 20.6281 5.20736 20.6301C5.20876 20.6321 5.21007 20.6348 5.21065 20.6386C5.2113 20.6428 5.21073 20.6466 5.20995 20.6489L4.97409 20.566ZM5.19075 20.8716V21.1216H6.93445V20.8716V20.6216H5.19075V20.8716ZM6.93445 20.8716V21.1216C7.1148 21.1216 7.2849 21.0625 7.42278 20.9614L7.27486 20.7598L7.12694 20.5583C7.07206 20.5985 7.00497 20.6216 6.93445 20.6216V20.8716ZM7.27486 20.7598L7.42295 20.9612C7.54983 20.8679 7.64975 20.7385 7.70699 20.5848L7.47272 20.4975L7.23844 20.4103C7.21581 20.471 7.1766 20.5218 7.12676 20.5584L7.27486 20.7598ZM7.47272 20.4975L7.70706 20.5846L7.95259 19.9239L7.71825 19.8368L7.48391 19.7498L7.23837 20.4105L7.47272 20.4975ZM8.2934 18.2892L8.52774 18.3763L8.81551 17.6019L8.58117 17.5148L8.34683 17.4278L8.05906 18.2021L8.2934 18.2892ZM8.58117 17.5148V17.7648H15.146V17.5148V17.2648H8.58117V17.5148ZM15.146 17.5148L14.9113 17.6012L16.0084 20.5822L16.243 20.4959L16.4776 20.4095L15.3806 17.4285L15.146 17.5148ZM16.243 20.4959L16.0082 20.5819C16.1272 20.9066 16.4368 21.1216 16.7819 21.1216V20.8716V20.6216C16.6457 20.6216 16.5242 20.5367 16.4777 20.4098L16.243 20.4959ZM16.7819 20.8716V21.1216H18.5284V20.8716V20.6216H16.7819V20.8716ZM18.5284 20.8716V21.1216C18.7053 21.1216 18.8566 21.0269 18.9389 20.8896L18.7245 20.761L18.5101 20.6324C18.512 20.6294 18.5145 20.6267 18.518 20.6247C18.5219 20.6224 18.5259 20.6216 18.5284 20.6216V20.8716ZM18.7245 20.761L18.9378 20.8915C19.0095 20.7743 19.0307 20.6264 18.9812 20.4839L18.7451 20.566L18.5089 20.648C18.5085 20.6467 18.5078 20.6436 18.5083 20.6395C18.5087 20.6358 18.5099 20.6327 18.5113 20.6305L18.7245 20.761ZM18.7451 20.566L18.981 20.4832L15.5705 10.7606L15.3345 10.8434L15.0986 10.9261L18.5092 20.6487L18.7451 20.566ZM10.862 17.5148L10.6277 17.4277L9.5192 20.4104L9.75354 20.4975L9.98788 20.5846L11.0963 17.6019L10.862 17.5148ZM9.75354 20.4975L9.51933 20.4101C9.47183 20.5374 9.3506 20.6216 9.21528 20.6216V20.8716V21.1216C9.56005 21.1216 9.86754 20.907 9.98776 20.585L9.75354 20.4975ZM9.21528 20.8716L9.21527 20.6216L6.93445 20.6216L6.93445 20.8716L6.93445 21.1216L9.21528 21.1216L9.21528 20.8716ZM13.0037 11.2204L12.7676 11.1381L11.3911 15.0884L11.6272 15.1707L11.8633 15.253L13.2398 11.3026L13.0037 11.2204ZM15.2036 5.12829V5.37829C15.3408 5.37829 15.4636 5.46517 15.5095 5.59516L15.7452 5.51206L15.981 5.42896C15.8648 5.0993 15.5532 4.87829 15.2036 4.87829V5.12829ZM15.7452 5.51206L15.5093 5.59481L20.79 20.6487L21.0259 20.566L21.2618 20.4832L15.9811 5.42931L15.7452 5.51206ZM21.0259 20.566L20.79 20.6488C20.7854 20.6356 20.7954 20.6216 20.8092 20.6216V20.8716V21.1216C21.14 21.1216 21.3713 20.7951 21.2618 20.4831L21.0259 20.566ZM20.8092 20.8716L20.8092 20.6216L18.5284 20.6216L18.5284 20.8716L18.5284 21.1216L20.8092 21.1216L20.8092 20.8716ZM12.9227 5.12831L12.9227 5.37831L15.2036 5.37829L15.2036 5.12829L15.2036 4.87829L12.9227 4.87831L12.9227 5.12831Z" fill="white"/>
</svg>
