<svg width="24" height="23" viewBox="0 0 24 23" fill="none" xmlns="http://www.w3.org/2000/svg">
<path d="M22 0.895996H2C0.8972 0.895996 0 1.7932 0 2.896V20.3064C0 21.4092 0.8972 22.3064 2 22.3064H22C23.1028 22.3064 24 21.4092 24 20.3064V2.896C24 1.7932 23.1028 0.895996 22 0.895996ZM2 1.696H22C22.6616 1.696 23.2 2.2344 23.2 2.896V5.6212H0.8V2.896C0.8 2.2344 1.3384 1.696 2 1.696ZM22 21.5064H2C1.3384 21.5064 0.8 20.968 0.8 20.3064V6.4212H23.2V20.3064C23.2 20.968 22.6616 21.5064 22 21.5064Z" fill="white"/>
<path d="M2.94639 4.05879H3.97999C4.20119 4.05879 4.37999 3.87999 4.37999 3.65879C4.37999 3.43759 4.20119 3.25879 3.97999 3.25879H2.94639C2.72519 3.25879 2.54639 3.43759 2.54639 3.65879C2.54639 3.87999 2.72519 4.05879 2.94639 4.05879Z" fill="white"/>
<path d="M5.94077 4.05879H6.97437C7.19557 4.05879 7.37437 3.87999 7.37437 3.65879C7.37437 3.43759 7.19557 3.25879 6.97437 3.25879H5.94077C5.71957 3.25879 5.54077 3.43759 5.54077 3.65879C5.54077 3.87999 5.71957 4.05879 5.94077 4.05879Z" fill="white"/>
<path d="M8.93479 4.05879H9.96839C10.1896 4.05879 10.3684 3.87999 10.3684 3.65879C10.3684 3.43759 10.1896 3.25879 9.96839 3.25879H8.93479C8.71359 3.25879 8.53479 3.43759 8.53479 3.65879C8.53479 3.87999 8.71359 4.05879 8.93479 4.05879Z" fill="white"/>
<path d="M11.6744 10.6267H10.726C10.0644 10.6267 9.526 11.1651 9.526 11.8267V16.0999C9.526 16.7615 10.0644 17.2999 10.726 17.2999H11.6744C13.218 17.2999 14.4744 16.0435 14.4744 14.4999V13.4267C14.4744 11.8831 13.218 10.6267 11.6744 10.6267ZM13.6744 14.4999C13.6744 15.6027 12.7772 16.4999 11.6744 16.4999H10.726C10.5052 16.4999 10.326 16.3207 10.326 16.0999V11.8267C10.326 11.6059 10.5052 11.4267 10.726 11.4267H11.6744C12.7772 11.4267 13.6744 12.3239 13.6744 13.4267V14.4999Z" fill="white"/>
<path d="M6.87438 10.6267H4.32598C3.66438 10.6267 3.12598 11.1651 3.12598 11.8267V16.8999C3.12598 17.1211 3.30478 17.2999 3.52598 17.2999C3.74718 17.2999 3.92598 17.1211 3.92598 16.8999V14.3635H7.27438V16.8999C7.27438 17.1211 7.45318 17.2999 7.67438 17.2999C7.89558 17.2999 8.07438 17.1211 8.07438 16.8999V11.8267C8.07438 11.1651 7.53598 10.6267 6.87438 10.6267ZM3.92598 13.5635V11.8267C3.92598 11.6059 4.10518 11.4267 4.32598 11.4267H6.87438C7.09518 11.4267 7.27438 11.6059 7.27438 11.8267V13.5635H3.92598Z" fill="white"/>
<path d="M20.4744 10.6267H17.126C16.4644 10.6267 15.926 11.1651 15.926 11.8267V13.1635C15.926 13.8251 16.4644 14.3635 17.126 14.3635H19.6744C19.8952 14.3635 20.0744 14.5427 20.0744 14.7635V16.0999C20.0744 16.3207 19.8952 16.4999 19.6744 16.4999H16.726V15.4319C16.726 15.2107 16.5472 15.0319 16.326 15.0319C16.1048 15.0319 15.926 15.2107 15.926 15.4319V16.8999C15.926 17.1211 16.1048 17.2999 16.326 17.2999H19.6744C20.336 17.2999 20.8744 16.7615 20.8744 16.0999V14.7635C20.8744 14.1019 20.336 13.5635 19.6744 13.5635H17.126C16.9052 13.5635 16.726 13.3843 16.726 13.1635V11.8267C16.726 11.6059 16.9052 11.4267 17.126 11.4267H20.0744V12.4951C20.0744 12.7163 20.2532 12.8951 20.4744 12.8951C20.6956 12.8951 20.8744 12.7163 20.8744 12.4951V11.0267C20.8744 10.8055 20.6956 10.6267 20.4744 10.6267Z" fill="white"/>
</svg>
