<svg width="24" height="24" viewBox="0 0 24 24" fill="none" xmlns="http://www.w3.org/2000/svg">
<path d="M21.4286 0H2.57143C1.88967 0.000793098 1.23605 0.28934 0.753977 0.802332C0.271902 1.31532 0.0007453 2.01086 0 2.73634V21.2637C0.0007453 21.9891 0.271902 22.6847 0.753977 23.1977C1.23605 23.7107 1.88967 23.9992 2.57143 24H21.4286C22.1103 23.9992 22.7639 23.7107 23.246 23.1977C23.7281 22.6847 23.9993 21.9891 24 21.2637V2.73634C23.9993 2.01086 23.7281 1.31532 23.246 0.802332C22.7639 0.28934 22.1103 0.000793098 21.4286 0ZM23.1429 21.2637C23.1424 21.7473 22.9616 22.211 22.6402 22.553C22.3188 22.895 21.8831 23.0874 21.4286 23.0879H2.57143C2.11692 23.0874 1.68117 22.895 1.35978 22.553C1.03839 22.211 0.857627 21.7473 0.857143 21.2637V6.61283H23.1429V21.2637ZM23.1429 5.70071H0.857143V2.73634C0.857627 2.25268 1.03839 1.78898 1.35978 1.44699C1.68117 1.10499 2.11692 0.912629 2.57143 0.912114H21.4286C21.8831 0.912629 22.3188 1.10499 22.6402 1.44699C22.9616 1.78898 23.1424 2.25268 23.1429 2.73634V5.70071Z" fill="white"/>
<path d="M3.83623 2.87891C3.72402 2.8818 3.61735 2.93142 3.53914 3.0171C3.46093 3.10278 3.41743 3.21769 3.41797 3.33713C3.41852 3.45658 3.46307 3.57103 3.54205 3.6559C3.62104 3.74077 3.72816 3.78928 3.84039 3.79102C3.9526 3.78812 4.05927 3.7385 4.13748 3.65282C4.21569 3.56714 4.25919 3.45224 4.25865 3.33279C4.2581 3.21335 4.21355 3.0989 4.13457 3.01403C4.05558 2.92916 3.94846 2.88064 3.83623 2.87891Z" fill="white"/>
<path d="M6.55876 2.87891C6.44655 2.8818 6.33988 2.93142 6.26167 3.0171C6.18347 3.10278 6.13996 3.21769 6.14051 3.33713C6.14105 3.45658 6.1856 3.57103 6.26459 3.6559C6.34357 3.74077 6.45069 3.78928 6.56293 3.79102C6.67514 3.78812 6.78181 3.7385 6.86002 3.65282C6.93822 3.56714 6.98173 3.45224 6.98118 3.33279C6.98064 3.21335 6.93609 3.0989 6.8571 3.01403C6.77812 2.92916 6.671 2.88064 6.55876 2.87891Z" fill="white"/>
<path d="M9.28167 2.87891C9.16945 2.8818 9.06278 2.93142 8.98458 3.0171C8.90637 3.10278 8.86286 3.21769 8.86341 3.33713C8.86395 3.45658 8.9085 3.57103 8.98749 3.6559C9.06647 3.74077 9.17359 3.78928 9.28582 3.79102C9.39804 3.78812 9.50471 3.73851 9.58291 3.65282C9.66112 3.56714 9.70463 3.45224 9.70408 3.33279C9.70354 3.21335 9.65899 3.0989 9.58 3.01403C9.50102 2.92916 9.3939 2.88064 9.28167 2.87891Z" fill="white"/>
<path d="M20.2437 2.87891H12.0251C11.9129 2.88129 11.8061 2.93038 11.7275 3.01565C11.649 3.10091 11.605 3.21555 11.605 3.33495C11.605 3.45435 11.649 3.56899 11.7275 3.65426C11.806 3.73953 11.9129 3.78863 12.0251 3.79102H20.2437C20.3558 3.78863 20.4627 3.73953 20.5412 3.65427C20.6198 3.569 20.6637 3.45436 20.6637 3.33496C20.6637 3.21556 20.6198 3.10093 20.5412 3.01566C20.4627 2.93039 20.3558 2.88129 20.2437 2.87891Z" fill="white"/>
<path d="M10.6715 19.24C10.3542 19.2438 10.0511 19.3806 9.828 19.6208C9.60488 19.8609 9.47974 20.1849 9.47974 20.5226C9.47973 20.8603 9.60487 21.1844 9.82798 21.4245C10.0511 21.6647 10.3542 21.8015 10.6715 21.8053C10.9888 21.8015 11.2919 21.6647 11.5151 21.4246C11.7382 21.1844 11.8633 20.8604 11.8633 20.5227C11.8633 20.185 11.7382 19.8609 11.5151 19.6208C11.292 19.3806 10.9889 19.2438 10.6715 19.24ZM10.6715 20.8932C10.5804 20.8913 10.4936 20.8514 10.4297 20.7821C10.3659 20.7128 10.3302 20.6197 10.3302 20.5227C10.3302 20.4256 10.3659 20.3325 10.4297 20.2632C10.4936 20.1939 10.5804 20.154 10.6715 20.1521C10.7627 20.154 10.8495 20.1939 10.9133 20.2632C10.9771 20.3325 11.0129 20.4256 11.0129 20.5226C11.0129 20.6197 10.9772 20.7128 10.9133 20.7821C10.8495 20.8514 10.7627 20.8913 10.6715 20.8932Z" fill="white"/>
<path d="M15.3323 19.24C15.015 19.2438 14.7119 19.3806 14.4888 19.6208C14.2656 19.8609 14.1405 20.1849 14.1405 20.5226C14.1405 20.8603 14.2656 21.1844 14.4887 21.4245C14.7119 21.6647 15.015 21.8015 15.3323 21.8053C15.6496 21.8015 15.9527 21.6647 16.1758 21.4246C16.399 21.1844 16.5241 20.8604 16.5241 20.5227C16.5241 20.185 16.399 19.8609 16.1759 19.6208C15.9527 19.3806 15.6496 19.2438 15.3323 19.24ZM15.3323 20.8932C15.2412 20.8913 15.1543 20.8514 15.0905 20.7821C15.0267 20.7128 14.9909 20.6197 14.9909 20.5227C14.9909 20.4256 15.0267 20.3325 15.0905 20.2632C15.1543 20.1939 15.2411 20.154 15.3323 20.1521C15.4234 20.154 15.5103 20.1939 15.5741 20.2632C15.6379 20.3325 15.6737 20.4256 15.6737 20.5226C15.6737 20.6197 15.6379 20.7128 15.5741 20.7821C15.5103 20.8514 15.4235 20.8913 15.3323 20.8932Z" fill="white"/>
<path d="M6.01084 8.5796H6.57752C6.75204 8.5791 6.92102 8.64476 7.05416 8.76481C7.18731 8.88487 7.27592 9.05146 7.3041 9.23473L8.5329 17.0817C8.59399 17.4781 8.78574 17.8385 9.07379 18.0981C9.36184 18.3578 9.72737 18.4999 10.1049 18.4988H16.8858C16.9983 18.4969 17.1056 18.448 17.1844 18.3627C17.2633 18.2774 17.3076 18.1625 17.3076 18.0428C17.3076 17.9231 17.2633 17.8082 17.1844 17.7229C17.1056 17.6376 16.9983 17.5887 16.8858 17.5867H10.1049C9.91635 17.5856 9.73523 17.5085 9.59794 17.371C9.46065 17.2335 9.37736 17.0458 9.36483 16.8456H16.0463C16.3808 16.8459 16.7069 16.734 16.9782 16.5259C17.2496 16.3177 17.4525 16.0239 17.558 15.6861L18.3347 13.2063C18.4127 12.9514 18.4331 12.6805 18.3942 12.4157C18.3554 12.1509 18.2584 11.8995 18.1111 11.682C17.9638 11.4645 17.7705 11.2871 17.5467 11.164C17.3229 11.041 17.0749 10.9759 16.823 10.9739H8.44533L8.14949 9.08466C8.0884 8.68822 7.89666 8.32788 7.60861 8.0682C7.32057 7.80852 6.95504 7.66647 6.57752 7.66749H6.01086C5.89835 7.66934 5.79103 7.7182 5.71208 7.80352C5.63313 7.88884 5.58887 8.00379 5.58887 8.12353C5.58886 8.24327 5.63311 8.35822 5.71206 8.44355C5.79101 8.52887 5.89832 8.57774 6.01084 8.5796ZM16.8231 11.886C16.9395 11.8869 17.054 11.917 17.1575 11.9739C17.2609 12.0308 17.3503 12.1128 17.4184 12.2133C17.4865 12.3137 17.5313 12.4299 17.5493 12.5523C17.5673 12.6747 17.558 12.7999 17.522 12.9177L16.7452 15.3975C16.6964 15.5537 16.6027 15.6896 16.4772 15.7858C16.3517 15.882 16.2009 15.9337 16.0463 15.9335H9.22201L8.58818 11.886H16.8231Z" fill="white"/>
</svg>
