<svg width="24" height="24" viewBox="0 0 24 24" fill="none" xmlns="http://www.w3.org/2000/svg">
<path d="M21.375 1.875H2.625C1.59 1.875 0.75 2.715 0.75 3.75V16.5C0.75 17.535 1.59 18.375 2.625 18.375H8.70375L7.62 20.4938C7.44375 20.8425 7.45875 21.2475 7.66125 21.5812C7.87125 21.9225 8.235 22.125 8.64 22.125H15.3563C15.7613 22.125 16.125 21.9225 16.335 21.5812C16.5375 21.2475 16.5562 20.8425 16.3762 20.4938L15.2925 18.375H21.3713C22.4062 18.375 23.2463 17.535 23.2463 16.5V3.75C23.2463 2.715 22.4062 1.875 21.3713 1.875H21.375ZM22.5 3.75V15.375H13.875V2.625H21.375C21.9937 2.625 22.5 3.13125 22.5 3.75ZM2.625 2.625H13.125V15.375H1.5V3.75C1.5 3.13125 2.00625 2.625 2.625 2.625ZM15.7087 20.835C15.7913 21 15.7275 21.1388 15.6937 21.1912C15.66 21.2475 15.5588 21.375 15.3563 21.375H8.64C8.4375 21.375 8.33625 21.2437 8.3025 21.1912C8.2725 21.1388 8.205 21 8.2875 20.835L9.54375 18.375H14.4487L15.705 20.835H15.7087ZM22.5 16.5C22.5 17.1187 21.9937 17.625 21.375 17.625H2.625C2.00625 17.625 1.5 17.1187 1.5 16.5V16.125H22.5V16.5Z" fill="white"/>
<path d="M3.375 9H11.625C12.0375 9 12.375 8.6625 12.375 8.25V4.5C12.375 4.0875 12.0375 3.75 11.625 3.75H3.375C2.9625 3.75 2.625 4.0875 2.625 4.5V8.25C2.625 8.6625 2.9625 9 3.375 9ZM3.375 4.5H11.625V8.25H3.375V4.5Z" fill="white"/>
<path d="M3.375 14.25H6.375C6.7875 14.25 7.125 13.9125 7.125 13.5V10.5C7.125 10.0875 6.7875 9.75 6.375 9.75H3.375C2.9625 9.75 2.625 10.0875 2.625 10.5V13.5C2.625 13.9125 2.9625 14.25 3.375 14.25ZM3.375 10.5H6.375V13.5H3.375V10.5Z" fill="white"/>
<path d="M11.625 9.75H8.625C8.2125 9.75 7.875 10.0875 7.875 10.5V13.5C7.875 13.9125 8.2125 14.25 8.625 14.25H11.625C12.0375 14.25 12.375 13.9125 12.375 13.5V10.5C12.375 10.0875 12.0375 9.75 11.625 9.75ZM8.625 13.5V10.5H11.625V13.5H8.625Z" fill="white"/>
<path d="M21 13.5H15.375C15.1687 13.5 15 13.6687 15 13.875C15 14.0813 15.1687 14.25 15.375 14.25H21C21.2063 14.25 21.375 14.0813 21.375 13.875C21.375 13.6687 21.2063 13.5 21 13.5Z" fill="white"/>
<path d="M21 11.625H15.375C15.1687 11.625 15 11.7937 15 12C15 12.2063 15.1687 12.375 15.375 12.375H21C21.2063 12.375 21.375 12.2063 21.375 12C21.375 11.7937 21.2063 11.625 21 11.625Z" fill="white"/>
<path d="M21 9.75H15.375C15.1687 9.75 15 9.91875 15 10.125C15 10.3313 15.1687 10.5 15.375 10.5H21C21.2063 10.5 21.375 10.3313 21.375 10.125C21.375 9.91875 21.2063 9.75 21 9.75Z" fill="white"/>
<path d="M19.65 7.80009C19.7175 7.84884 19.7963 7.87509 19.875 7.87509C19.9875 7.87509 20.1 7.82259 20.175 7.72509L21.3 6.22509C21.4013 6.09009 21.4013 5.91009 21.3 5.77509L20.175 4.27509C20.0513 4.11009 19.815 4.07634 19.65 4.20009C19.485 4.32384 19.4513 4.56009 19.575 4.72509L20.5313 6.00009L19.575 7.27509C19.4513 7.44009 19.485 7.67634 19.65 7.80009Z" fill="white"/>
<path d="M14.7 6.22509L15.825 7.72509C15.9 7.82259 16.0125 7.87509 16.125 7.87509C16.2038 7.87509 16.2825 7.84884 16.35 7.80009C16.515 7.67634 16.5488 7.44009 16.425 7.27509L15.4688 6.00009L16.425 4.72509C16.5488 4.56009 16.515 4.32384 16.35 4.20009C16.185 4.07634 15.9488 4.11009 15.825 4.27509L14.7 5.77509C14.5988 5.91009 14.5988 6.09009 14.7 6.22509Z" fill="white"/>
<path d="M17.535 7.86384C17.565 7.87134 17.595 7.87509 17.625 7.87509C17.7938 7.87509 17.9475 7.76259 17.9888 7.59009L18.7388 4.59009C18.7875 4.38759 18.6675 4.18509 18.465 4.13634C18.2625 4.08384 18.06 4.20759 18.0113 4.41009L17.2613 7.41009C17.2125 7.61259 17.3325 7.81509 17.535 7.86384Z" fill="white"/>
</svg>
