<svg width="30" height="25" viewBox="0 0 30 25" fill="none" xmlns="http://www.w3.org/2000/svg">
<path d="M0.295044 0.320068V24.6801H29.6625V0.320068H0.295044ZM28.43 23.4372H1.57004V1.56293H28.3875V23.4372H28.43Z" fill="white"/>
<path d="M10.0275 9.47576L14.575 13.9086L15.51 13.0386L10.0275 7.69434L4.54504 13.0386L5.48004 13.9086L10.0275 9.47576Z" fill="white"/>
<path d="M15.7651 9.47576L24.4776 17.9686L25.3701 17.0986L15.7651 7.69434L13.0026 10.3872L13.8951 11.2572L15.7651 9.47576Z" fill="white"/>
<path d="M23.2451 7.56999C24.5201 7.56999 25.5401 6.5757 25.5401 5.33285C25.5401 4.08999 24.5201 3.0957 23.2451 3.0957C21.9701 3.0957 20.9501 4.13142 20.9501 5.33285C20.9501 6.53427 22.0126 7.56999 23.2451 7.56999ZM23.2451 4.37999C23.7976 4.37999 24.2651 4.8357 24.2651 5.37427C24.2651 5.91285 23.7976 6.36856 23.2451 6.36856C22.6926 6.36856 22.2251 5.91285 22.2251 5.37427C22.2251 4.79427 22.6926 4.37999 23.2451 4.37999C23.2451 4.33856 23.2451 4.33856 23.2451 4.37999Z" fill="white"/>
</svg>
